<svg width="57" height="13" viewBox="0 0 57 13" fill="none" xmlns="http://www.w3.org/2000/svg">
<g clip-path="url(#clip0_118_863)">
<path fill-rule="evenodd" clip-rule="evenodd" d="M6.7482 0.670462C5.48924 0.540639 4.22011 0.795723 3.11525 1.40065C2.01038 2.00559 1.12403 2.93067 0.578022 4.04874C0.0320122 5.16682 -0.146853 6.423 0.066012 7.64463C0.278877 8.86626 0.873023 9.99337 1.76678 10.871C2.66054 11.7487 3.81004 12.3338 5.05728 12.546C6.30452 12.7581 7.58826 12.5869 8.73207 12.0558C9.87588 11.5248 10.8236 10.66 11.4449 9.58024C12.0663 8.50052 12.3308 7.2589 12.2021 6.02605C12.0604 4.65565 11.4407 3.37489 10.4474 2.39943C9.45401 1.42396 8.14762 0.813365 6.7482 0.670462ZM6.54964 9.81041C5.87254 9.89933 5.18399 9.77832 4.58077 9.46437C3.97754 9.15043 3.48997 8.65933 3.18658 8.06011C2.88319 7.46089 2.77923 6.78366 2.88931 6.12361C2.99939 5.46356 3.31798 4.85387 3.8003 4.38023C4.28262 3.90658 4.90442 3.5928 5.57832 3.48297C6.25222 3.37314 6.94433 3.47279 7.55739 3.76792C8.17044 4.06305 8.67362 4.53881 8.9962 5.12835C9.31879 5.71789 9.44456 6.39156 9.35584 7.05469C9.26274 7.75218 8.93735 8.40018 8.43005 8.89835C7.92276 9.39653 7.26185 9.71709 6.54964 9.81041ZM15.4794 0.90777C15.2669 0.908268 15.0572 0.955142 14.8655 1.04498C14.6738 1.13482 14.505 1.26536 14.3713 1.42711C14.2377 1.58886 14.1425 1.77775 14.0928 1.98003C14.0431 2.18231 14.0401 2.39289 14.084 2.59646C14.2184 3.25594 14.8477 3.70654 15.5331 3.70654H19.511L13.3205 11.7263C13.2747 11.7855 13.2467 11.856 13.2396 11.93C13.2324 12.0039 13.2465 12.0783 13.2801 12.1449C13.3137 12.2114 13.3657 12.2675 13.43 12.3068C13.4944 12.3461 13.5687 12.3671 13.6445 12.3673H23.3549C24.0399 12.3673 24.6696 11.9169 24.804 11.2573C24.8479 11.0537 24.845 10.8432 24.7953 10.6409C24.7456 10.4387 24.6505 10.2498 24.5169 10.088C24.3833 9.92626 24.2146 9.79568 24.023 9.70579C23.8313 9.61589 23.6216 9.56894 23.4092 9.56835H18.5624L24.7481 1.55479C24.7944 1.49501 24.8227 1.4238 24.8299 1.34915C24.8371 1.2745 24.8229 1.19937 24.7889 1.13218C24.7549 1.06498 24.7024 1.0084 24.6374 0.968758C24.5724 0.92912 24.4974 0.908001 24.4208 0.90777H15.4794ZM54.2815 0.940053C53.96 1.01489 53.6742 1.19489 53.4714 1.45029C53.2686 1.70569 53.1609 2.0212 53.1662 2.34465V7.00451L45.453 0.995784C45.3926 0.948781 45.3197 0.919449 45.243 0.911161C45.1662 0.902874 45.0886 0.915968 45.0191 0.948937C44.9496 0.981906 44.8911 1.03341 44.8501 1.09753C44.8092 1.16164 44.7876 1.23576 44.7878 1.31136V10.933C44.7826 11.2564 44.8903 11.5719 45.0931 11.8273C45.2959 12.0827 45.5817 12.2627 45.9032 12.3375C46.1119 12.3825 46.3283 12.381 46.5364 12.3332C46.7445 12.2854 46.939 12.1924 47.1055 12.0612C47.272 11.93 47.4063 11.7638 47.4984 11.575C47.5906 11.3862 47.6383 11.1796 47.638 10.9703V6.27015L55.3512 12.279C55.4117 12.326 55.4845 12.3553 55.5612 12.3636C55.6379 12.3718 55.7155 12.3587 55.785 12.3258C55.8544 12.2928 55.913 12.2414 55.9539 12.1773C55.9948 12.1132 56.0164 12.0391 56.0162 11.9635V2.30681C56.0164 2.09761 55.9687 1.89103 55.8765 1.70229C55.7843 1.51356 55.65 1.34748 55.4835 1.21632C55.3171 1.08515 55.1226 0.992233 54.9146 0.944419C54.7065 0.896606 54.4902 0.895114 54.2815 0.940053ZM34.1986 3.43865C37.4611 3.43865 39.8987 5.12643 39.8987 6.63614C39.8987 8.14585 37.4611 9.83363 34.1986 9.83363C30.9362 9.83363 28.4985 8.14585 28.4985 6.63614C28.4985 5.12643 30.9362 3.43865 34.1986 3.43865ZM34.1986 0.639991C29.4764 0.639991 25.6484 3.32458 25.6484 6.63614C25.6484 9.9477 29.4764 12.6323 34.1986 12.6323C38.9209 12.6323 42.7488 9.9477 42.7488 6.63614C42.7488 3.32458 38.9208 0.639991 34.1986 0.639991Z" fill="white"/>
</g>
<defs>
<clipPath id="clip0_118_863">
<rect width="56" height="12" fill="white" transform="translate(0.0161133 0.637695)"/>
</clipPath>
</defs>
</svg>
