<svg width="56" height="56" viewBox="0 0 56 56" fill="none" xmlns="http://www.w3.org/2000/svg">
<path fill-rule="evenodd" clip-rule="evenodd" d="M9.84922 35.4809C10.4133 35.7066 10.6876 36.3467 10.462 36.9108L5.7701 48.6406L9.96636 46.5424C10.2497 46.4008 10.5805 46.3881 10.8738 46.5078C11.1672 46.6275 11.3947 46.8679 11.4981 47.1673L12.9963 51.507L17.6634 39.9077C17.8902 39.3441 18.5309 39.071 19.0945 39.2978C19.6581 39.5246 19.9312 40.1653 19.7044 40.7289L13.938 55.0602C13.7666 55.486 13.3488 55.7607 12.8899 55.7492C12.431 55.7377 12.0275 55.4424 11.8777 55.0085L9.82798 49.0713L4.1662 51.9022C3.75771 52.1064 3.26552 52.037 2.92944 51.7278C2.59337 51.4186 2.48332 50.9338 2.65294 50.5098L8.41936 36.0937C8.64499 35.5297 9.28516 35.2553 9.84922 35.4809Z" fill="#22567B"/>
<path fill-rule="evenodd" clip-rule="evenodd" d="M32.5171 35.4831C33.08 35.2547 33.7216 35.5258 33.95 36.0887L39.8013 50.5048C39.973 50.928 39.8654 51.4133 39.5309 51.7242C39.1963 52.0351 38.7045 52.107 38.295 51.9047L32.5456 49.0655L30.4938 55.0086C30.344 55.4426 29.9405 55.7378 29.4816 55.7493C29.0227 55.7608 28.6049 55.4861 28.4335 55.0603L22.6671 40.729C22.4403 40.1654 22.7134 39.5247 23.277 39.2979C23.8406 39.0711 24.4813 39.3442 24.7081 39.9078L29.3752 51.5071L30.8734 47.1675C30.9765 46.8689 31.203 46.629 31.4952 46.509C31.7873 46.3889 32.117 46.4003 32.4003 46.5401L36.6745 48.6509L31.9116 36.9161C31.6831 36.3532 31.9542 35.7116 32.5171 35.4831Z" fill="#22567B"/>
<path fill-rule="evenodd" clip-rule="evenodd" d="M21.2264 2.74968C11.1089 2.74968 2.90709 10.9515 2.90709 21.069C2.90709 31.1864 11.1089 39.3882 21.2264 39.3882C31.3438 39.3882 39.5456 31.1864 39.5456 21.069C39.5456 10.9515 31.3438 2.74968 21.2264 2.74968ZM0.707092 21.069C0.707092 9.73647 9.89388 0.549683 21.2264 0.549683C32.5588 0.549683 41.7456 9.73648 41.7456 21.069C41.7456 32.4014 32.5588 41.5882 21.2264 41.5882C9.89389 41.5882 0.707092 32.4014 0.707092 21.069Z" fill="#22567B"/>
<path fill-rule="evenodd" clip-rule="evenodd" d="M23.9662 13.8933C23.9186 13.9466 23.9036 14.0022 23.9169 14.0686C23.9311 14.1396 23.9382 14.2119 23.9382 14.2843V15.1323C23.9382 15.1539 23.9376 15.1754 23.9363 15.1969C23.8338 16.9398 23.014 18.4975 21.6737 19.5423C20.6884 20.4037 19.4137 20.8115 18.1742 20.8115H17.6654C17.0579 20.8115 16.5654 20.3191 16.5654 19.7115C16.5654 19.104 17.0579 18.6115 17.6654 18.6115H18.1742C18.9574 18.6115 19.7047 18.3492 20.2418 17.8718C20.2613 17.8545 20.2813 17.8379 20.3019 17.8221C21.1409 17.1767 21.6643 16.2125 21.7382 15.0981V14.3785C21.5013 12.8128 22.7904 11.5731 24.2798 11.5731C25.1184 11.5731 26.0144 11.9844 26.4951 12.7856L26.5021 12.7972C26.8963 13.4731 27.2368 14.4503 27.1586 15.7395C27.1071 16.5903 26.8752 17.5455 26.3912 18.6115H29.1134C30.2984 18.6115 31.4855 19.5165 31.4855 20.8988C31.4855 20.9285 31.4842 20.9583 31.4818 20.988L30.8913 28.243C30.8623 29.5962 29.69 30.4788 28.5198 30.4788H22.499C21.6994 30.4788 20.9509 30.2512 20.2849 29.9658C20.2651 29.9574 20.2455 29.9483 20.2263 29.9387L19.5479 29.5995C19.5309 29.591 19.5142 29.5821 19.4978 29.5728C19.4973 29.5737 19.4498 29.5541 19.3269 29.5256C19.1783 29.4913 18.9897 29.4594 18.7748 29.4294C18.5704 29.4009 18.3621 29.3767 18.1613 29.3534L18.1336 29.3502C17.939 29.3276 17.7288 29.3032 17.5694 29.2766C16.9701 29.1767 16.5653 28.61 16.6652 28.0107C16.765 27.4115 17.3318 27.0067 17.931 27.1065C18.0253 27.1223 18.1744 27.1402 18.3899 27.1652L18.4214 27.1688C18.6172 27.1916 18.8485 27.2184 19.0788 27.2505C19.3197 27.2841 19.5817 27.3265 19.8226 27.3822C20.0234 27.4287 20.3077 27.5052 20.5595 27.6456L21.1802 27.9559C21.6889 28.1712 22.1186 28.2788 22.499 28.2788H28.5198C28.5863 28.2788 28.6402 28.253 28.6703 28.2256C28.684 28.2132 28.689 28.204 28.6903 28.2011C28.691 28.1997 28.6919 28.1981 28.6919 28.1916C28.6919 28.1618 28.6931 28.132 28.6955 28.1023L29.2828 20.887C29.2805 20.8829 29.2751 20.8748 29.2639 20.8647C29.2338 20.8373 29.1799 20.8115 29.1134 20.8115H24.5342C24.1321 20.8115 23.762 20.5921 23.5691 20.2393C23.3762 19.8864 23.3911 19.4565 23.6082 19.1179C24.5922 17.5829 24.913 16.4264 24.9627 15.6064C25.0113 14.8037 24.8046 14.2569 24.6068 13.9146C24.5757 13.8668 24.4554 13.7731 24.2798 13.7731C24.1182 13.7731 24.0168 13.8366 23.9662 13.8933Z" fill="#22567B"/>
<path fill-rule="evenodd" clip-rule="evenodd" d="M13.2532 19.5391V28.3632H16.4804V19.5391H13.2532ZM11.6086 17.8945C11.9911 17.512 12.4969 17.3391 13.0012 17.3391H16.7324C17.2368 17.3391 17.7426 17.512 18.1251 17.8945C18.5075 18.277 18.6804 18.7827 18.6804 19.2871V28.543C18.7436 29.1231 18.5308 29.6444 18.1675 30.0078C17.8044 30.3709 17.3089 30.5632 16.8172 30.5632H13.0012C12.4969 30.5632 11.9911 30.3902 11.6086 30.0078C11.2261 29.6253 11.0532 29.1195 11.0532 28.6152V19.2871C11.0532 18.7827 11.2261 18.277 11.6086 17.8945Z" fill="#22567B"/>
<path fill-rule="evenodd" clip-rule="evenodd" d="M47.5093 31.4117C44.136 31.4117 41.4013 34.1463 41.4013 37.5197C41.4013 40.8931 44.136 43.6277 47.5093 43.6277C50.8827 43.6277 53.6173 40.8931 53.6173 37.5197C53.6173 34.1463 50.8827 31.4117 47.5093 31.4117ZM39.2013 37.5197C39.2013 32.9313 42.9209 29.2117 47.5093 29.2117C52.0977 29.2117 55.8173 32.9313 55.8173 37.5197C55.8173 42.1081 52.0977 45.8277 47.5093 45.8277C42.9209 45.8277 39.2013 42.1081 39.2013 37.5197Z" fill="#22567B"/>
<path fill-rule="evenodd" clip-rule="evenodd" d="M51.4247 34.4526C51.8542 34.8821 51.8542 35.5786 51.4247 36.0082L46.8454 40.5874C46.6357 40.7971 46.3501 40.9133 46.0535 40.9095C45.7569 40.9057 45.4744 40.7823 45.2701 40.5672L43.6589 38.8712C43.2405 38.4308 43.2583 37.7345 43.6988 37.3161C44.1392 36.8977 44.8355 36.9155 45.2539 37.356L46.0878 38.2338L49.869 34.4526C50.2986 34.023 50.9951 34.023 51.4247 34.4526Z" fill="#22567B"/>
</svg>
