<svg width="19" height="21" viewBox="0 0 19 21" fill="none" xmlns="http://www.w3.org/2000/svg">
<path fill-rule="evenodd" clip-rule="evenodd" d="M15.1353 3.93303C13.4756 2.2733 10.7846 2.2733 9.12484 3.93303L2.23054 10.8273C1.84002 11.2178 1.20685 11.2178 0.816331 10.8273C0.425806 10.4368 0.425806 9.80363 0.816331 9.41311L7.71062 2.51881C10.1514 0.0780383 14.1087 0.0780382 16.5495 2.51882C18.9904 4.95965 18.99 8.91712 16.5493 11.3578L8.59431 19.3128C6.83688 21.0702 3.98802 21.0699 2.23073 19.3126C0.473495 17.5554 0.472909 14.7063 2.23039 12.9489L10.1853 4.99391C11.2593 3.91997 13.0011 3.91997 14.075 4.99391C15.1493 6.06821 15.1481 7.80915 14.0745 8.88274L7.18025 15.777C6.78973 16.1676 6.15656 16.1676 5.76604 15.777C5.37551 15.3865 5.37551 14.7533 5.76604 14.3628L12.6603 7.46852C12.9536 7.17527 12.9533 6.70066 12.6608 6.40813C12.3679 6.11523 11.8925 6.11523 11.5996 6.40813L3.64461 14.3631C2.66842 15.3393 2.66851 16.9219 3.64494 17.8984C4.62133 18.8748 6.20386 18.8748 7.1801 17.8986L15.1351 9.94362C16.7948 8.28383 16.795 5.59269 15.1353 3.93303Z" fill="white"/>
</svg>
