<svg width="54" height="54" viewBox="0 0 54 54" fill="none" xmlns="http://www.w3.org/2000/svg">
<path d="M48.647 0.649658C46.0308 0.649658 43.9025 2.77803 43.9025 5.39415C43.9025 6.42216 44.2322 7.37398 44.7899 8.15189L40.8665 12.0754L41.9653 13.1741L45.8885 9.2507C46.6664 9.80875 47.6186 10.1386 48.647 10.1386C51.2631 10.1386 53.3915 8.01028 53.3915 5.39415C53.3915 2.77803 51.2631 0.649658 48.647 0.649658ZM48.647 8.58469C46.8877 8.58469 45.4564 7.15349 45.4564 5.39415C45.4564 3.63482 46.8877 2.20362 48.647 2.20362C50.4062 2.20362 51.8375 3.63482 51.8375 5.39415C51.8375 7.15349 50.4062 8.58469 48.647 8.58469Z" fill="#22567B"/>
<path fill-rule="evenodd" clip-rule="evenodd" d="M43.6025 5.3941C43.6025 2.61229 45.8651 0.349609 48.647 0.349609C51.4288 0.349609 53.6915 2.61229 53.6915 5.3941C53.6915 8.17592 51.4288 10.4386 48.647 10.4386C47.645 10.4386 46.7106 10.1439 45.9252 9.63825L41.9653 13.5983L40.4422 12.0754L44.4023 8.11513C43.897 7.32974 43.6025 6.3958 43.6025 5.3941ZM48.647 0.949609C46.1965 0.949609 44.2025 2.94366 44.2025 5.3941C44.2025 6.35689 44.511 7.24801 45.0337 7.97704L45.182 8.18395L41.2907 12.0753L41.9653 12.7498L45.8564 8.85844L46.0634 9.00689C46.7924 9.52984 47.6839 9.8386 48.647 9.8386C51.0974 9.8386 53.0915 7.84455 53.0915 5.3941C53.0915 2.94366 51.0974 0.949609 48.647 0.949609ZM48.647 2.50357C47.0534 2.50357 45.7564 3.80046 45.7564 5.3941C45.7564 6.98775 47.0534 8.28464 48.647 8.28464C50.2405 8.28464 51.5375 6.98775 51.5375 5.3941C51.5375 3.80046 50.2405 2.50357 48.647 2.50357ZM45.1564 5.3941C45.1564 3.46908 46.722 1.90357 48.647 1.90357C50.5719 1.90357 52.1375 3.46908 52.1375 5.3941C52.1375 7.31913 50.5719 8.88464 48.647 8.88464C46.722 8.88464 45.1564 7.31913 45.1564 5.3941Z" fill="#22567B"/>
<path d="M20.1209 44.9115L21.6081 41.4413L20.1798 40.8292L18.6934 44.2974C18.3312 44.2086 17.9533 44.1605 17.5641 44.1605C14.948 44.1605 12.8196 46.2889 12.8196 48.905C12.8196 51.5212 14.9481 53.6495 17.5641 53.6495C20.1801 53.6495 22.3086 51.5212 22.3086 48.905C22.3087 47.23 21.4353 45.756 20.1209 44.9115ZM17.5641 52.0956C15.8049 52.0956 14.3736 50.6644 14.3736 48.905C14.3736 47.1457 15.8049 45.7145 17.5641 45.7145C19.3233 45.7145 20.7546 47.1457 20.7546 48.905C20.7546 50.6644 19.3234 52.0956 17.5641 52.0956Z" fill="#22567B"/>
<path fill-rule="evenodd" clip-rule="evenodd" d="M20.0222 40.4353L22.002 41.2837L20.4941 44.8023C21.7722 45.7174 22.6087 47.2144 22.6086 48.905M20.0222 40.4353L19.9041 40.711ZM20.3374 41.2231L18.869 44.6493L18.622 44.5887C18.2825 44.5055 17.9285 44.4605 17.5641 44.4605C15.1136 44.4605 13.1196 46.4546 13.1196 48.905C13.1196 51.3555 15.1137 53.3495 17.5641 53.3495C20.0144 53.3495 22.0086 51.3555 22.0086 48.905C22.0087 47.3368 21.1913 45.9558 19.9587 45.1639L19.7452 45.0267L21.2142 41.5989L20.3374 41.2231ZM19.9041 40.711L18.5153 43.9514ZM18.5153 43.9514C18.2073 43.8921 17.8894 43.8605 17.5641 43.8605C14.7823 43.8605 12.5196 46.1232 12.5196 48.905C12.5196 51.6868 14.7824 53.9495 17.5641 53.9495C20.3458 53.9495 22.6086 51.6868 22.6086 48.905M17.5641 46.0145C15.9705 46.0145 14.6736 47.3114 14.6736 48.905C14.6736 50.4987 15.9705 51.7956 17.5641 51.7956C19.1577 51.7956 20.4546 50.4987 20.4546 48.905C20.4546 47.3114 19.1576 46.0145 17.5641 46.0145ZM14.0736 48.905C14.0736 46.98 15.6392 45.4145 17.5641 45.4145C19.489 45.4145 21.0546 46.98 21.0546 48.905C21.0546 50.83 19.4891 52.3956 17.5641 52.3956C15.6392 52.3956 14.0736 50.8301 14.0736 48.905Z" fill="#22567B"/>
<path d="M42.4264 36.552C41.0141 36.552 39.7127 37.0328 38.6745 37.8377L33.9648 33.128C35.3317 31.5125 36.1573 29.4252 36.1573 27.1484C36.1573 24.8718 35.3319 22.7846 33.9653 21.1693L40.7107 14.4235L39.6119 13.3248L32.8666 20.0705C31.2511 18.7036 29.1637 17.8779 26.8868 17.8779C24.5794 17.8779 22.4664 18.7255 20.8422 20.1254L14.5407 13.939C15.4083 12.8803 15.9298 11.5278 15.9298 10.0555C15.9298 6.67184 13.177 3.91907 9.79332 3.91907C6.40962 3.91907 3.65696 6.67194 3.65696 10.0556C3.65696 13.4393 6.40973 16.1921 9.79342 16.1921C11.1455 16.1921 12.3961 15.7516 13.4114 15.0079L19.7535 21.2342C18.4195 22.8403 17.6163 24.9024 17.6163 27.1484C17.6163 27.8737 17.7003 28.5798 17.8586 29.2575L12.2008 31.0386C11.2823 28.8053 9.08414 27.2282 6.52349 27.2282C3.1399 27.2283 0.387135 29.9811 0.387135 33.3648C0.387135 36.7485 3.1399 39.5013 6.52359 39.5013C9.90729 39.5013 12.6601 36.7485 12.6601 33.3648C12.6601 33.0856 12.6396 32.8112 12.6032 32.5417L18.3388 30.7354C19.1686 32.7057 20.6608 34.3308 22.5346 35.3315L20.8166 39.3404L22.2449 39.9525L23.9621 35.9456C24.882 36.2522 25.8653 36.4188 26.8869 36.4188C29.1636 36.4188 31.2508 35.5934 32.8662 34.2267L37.5759 38.9365C36.7709 39.9746 36.2901 41.2761 36.2901 42.6885C36.2901 46.0722 39.0429 48.8249 42.4266 48.8249C45.8102 48.8249 48.563 46.0722 48.563 42.6885C48.563 39.3048 45.81 36.552 42.4264 36.552ZM6.52359 37.9474C3.9968 37.9474 1.9411 35.8917 1.9411 33.3649C1.9411 30.8381 3.9968 28.7824 6.52359 28.7824C9.05039 28.7824 11.1061 30.8381 11.1061 33.3649C11.1061 35.8916 9.05039 37.9474 6.52359 37.9474ZM5.21092 10.0556C5.21092 7.52884 7.26662 5.47303 9.79342 5.47303C12.3202 5.47303 14.3759 7.52873 14.3759 10.0555C14.3759 12.5823 12.3202 14.638 9.79342 14.638C7.26662 14.638 5.21092 12.5824 5.21092 10.0556ZM26.8869 34.8648C22.632 34.8648 19.1704 31.4033 19.1704 27.1484C19.1704 22.8934 22.632 19.4319 26.8869 19.4319C31.1418 19.4319 34.6034 22.8934 34.6034 27.1484C34.6034 31.4033 31.1418 34.8648 26.8869 34.8648ZM42.4264 47.2711C39.8996 47.2711 37.8439 45.2154 37.8439 42.6886C37.8439 40.1618 39.8996 38.1061 42.4264 38.1061C44.9531 38.1061 47.0088 40.1618 47.0088 42.6886C47.0088 45.2153 44.9531 47.2711 42.4264 47.2711Z" fill="#22567B"/>
<path fill-rule="evenodd" clip-rule="evenodd" d="M3.35696 10.0556C3.35696 6.50622 6.24393 3.61902 9.79332 3.61902C13.3427 3.61902 16.2298 6.5061 16.2298 10.0555C16.2298 11.5014 15.7501 12.8374 14.9424 13.9129L20.8582 19.7207C22.5047 18.3819 24.6037 17.5779 26.8868 17.5779C29.1384 17.5779 31.2108 18.3602 32.8468 19.6659L39.6119 12.9005L41.135 14.4235L34.3698 21.189C35.6752 22.8249 36.4573 24.897 36.4573 27.1484C36.4573 29.3999 35.675 31.4722 34.3694 33.1081L38.7035 37.4424C39.7549 36.694 41.0398 36.252 42.4264 36.252C45.9757 36.252 48.863 39.139 48.863 42.6884C48.863 46.2378 45.9759 49.1249 42.4266 49.1249C38.8772 49.1249 35.9901 46.2378 35.9901 42.6884C35.9901 41.3018 36.4321 40.0168 37.1806 38.9654L32.8465 34.6311C31.2105 35.9366 29.1383 36.7187 26.8869 36.7187C25.9294 36.7187 25.0041 36.577 24.1307 36.3138L22.4025 40.3463L20.4227 39.4979L22.152 35.4627C20.4098 34.4668 19.0089 32.9396 18.1721 31.1024L12.9298 32.7534C12.9494 32.9541 12.9601 33.1579 12.9601 33.3647C12.9601 36.9141 10.073 39.8012 6.5236 39.8012C2.97422 39.8012 0.0871353 36.9141 0.0871353 33.3647C0.0871353 29.8154 2.97422 26.9283 6.52348 26.9282C9.11254 26.9282 11.3469 28.4647 12.3677 30.6715L17.5071 29.0536C17.3821 28.4376 17.3163 27.8004 17.3163 27.1484C17.3163 24.9286 18.0764 22.8827 19.3492 21.2576L13.3794 15.3969C12.3541 16.0875 11.1202 16.492 9.79342 16.492C6.24404 16.492 3.35696 13.605 3.35696 10.0556ZM9.79332 4.21902C6.57532 4.21902 3.95696 6.83757 3.95696 10.0556C3.95696 13.2736 6.57542 15.892 9.79342 15.892C11.0793 15.892 12.2682 15.4734 13.2341 14.7658L13.4397 14.6152L20.1607 21.2135L19.9843 21.4258C18.6932 22.9803 17.9163 24.9751 17.9163 27.1484C17.9163 27.8505 17.9976 28.5337 18.1507 29.1893L18.214 29.4601L12.0281 31.4074L11.9233 31.1527C11.0493 29.0275 8.95791 27.5282 6.5235 27.5282C3.30559 27.5283 0.687135 30.1467 0.687135 33.3647C0.687135 36.5828 3.30559 39.2012 6.5236 39.2012C9.7416 39.2012 12.3601 36.5828 12.3601 33.3647C12.3601 33.1003 12.3406 32.8393 12.3059 32.5818L12.2722 32.3314L18.5092 30.3672L18.6152 30.6189C19.4182 32.5253 20.8624 34.0983 22.676 35.0668L22.9188 35.1965L21.2105 39.1828L22.0873 39.5585L23.7951 35.5737L24.057 35.661C24.9469 35.9576 25.8981 36.1187 26.8869 36.1187C29.0898 36.1187 31.1089 35.3204 32.6725 33.9976L32.8832 33.8193L37.975 38.9113L37.8129 39.1203C37.0471 40.108 36.5901 41.3454 36.5901 42.6884C36.5901 45.9064 39.2086 48.5249 42.4266 48.5249C45.6446 48.5249 48.263 45.9064 48.263 42.6884C48.263 39.4704 45.6444 36.852 42.4264 36.852C41.0834 36.852 39.8461 37.3089 38.8583 38.0747L38.6493 38.2367L33.5575 33.1449L33.7358 32.9341C35.0587 31.3706 35.8573 29.3513 35.8573 27.1484C35.8573 24.9456 35.0589 22.9265 33.7362 21.363L33.558 21.1523L40.2864 14.4235L39.6119 13.7491L32.8835 20.4778L32.6728 20.2995C31.1092 18.9765 29.0899 18.1779 26.8868 18.1779C24.6542 18.1779 22.6101 18.9977 21.038 20.3526L20.829 20.5327L14.1348 13.9609L14.3087 13.7488C15.1341 12.7416 15.6298 11.4557 15.6298 10.0555C15.6298 6.83747 13.0113 4.21902 9.79332 4.21902ZM9.79342 5.77298C7.43232 5.77298 5.51092 7.69447 5.51092 10.0556C5.51092 12.4167 7.4323 14.338 9.79342 14.338C12.1545 14.338 14.0759 12.4166 14.0759 10.0555C14.0759 7.69437 12.1545 5.77298 9.79342 5.77298ZM4.91092 10.0556C4.91092 7.36311 7.10093 5.17298 9.79342 5.17298C12.4859 5.17298 14.6759 7.363 14.6759 10.0555C14.6759 12.748 12.4859 14.938 9.79342 14.938C7.10095 14.938 4.91092 12.7481 4.91092 10.0556ZM26.8869 19.7319C22.7977 19.7319 19.4704 23.0591 19.4704 27.1484C19.4704 31.2376 22.7977 34.5648 26.8869 34.5648C30.9761 34.5648 34.3034 31.2376 34.3034 27.1484C34.3034 23.0591 30.9761 19.7319 26.8869 19.7319ZM18.8704 27.1484C18.8704 22.7277 22.4664 19.1319 26.8869 19.1319C31.3075 19.1319 34.9034 22.7277 34.9034 27.1484C34.9034 31.5689 31.3075 35.1648 26.8869 35.1648C22.4664 35.1648 18.8704 31.5689 18.8704 27.1484ZM6.5236 29.0824C4.16248 29.0824 2.2411 31.0037 2.2411 33.3648C2.2411 35.726 4.16248 37.6473 6.5236 37.6473C8.8847 37.6473 10.8061 35.7259 10.8061 33.3648C10.8061 31.0037 8.88471 29.0824 6.5236 29.0824ZM1.6411 33.3648C1.6411 30.6724 3.83111 28.4824 6.5236 28.4824C9.21608 28.4824 11.4061 30.6724 11.4061 33.3648C11.4061 36.0572 9.21608 38.2473 6.5236 38.2473C3.83111 38.2473 1.6411 36.0573 1.6411 33.3648ZM42.4264 38.406C40.0652 38.406 38.1439 40.3274 38.1439 42.6885C38.1439 45.0496 40.0652 46.971 42.4264 46.971C44.7875 46.971 46.7088 45.0495 46.7088 42.6885C46.7088 40.3274 44.7875 38.406 42.4264 38.406ZM37.5439 42.6885C37.5439 39.9961 39.7339 37.806 42.4264 37.806C45.1188 37.806 47.3088 39.9961 47.3088 42.6885C47.3088 45.3809 45.1188 47.571 42.4264 47.571C39.7339 47.571 37.5439 45.381 37.5439 42.6885Z" fill="#22567B"/>
<path d="M22.231 22.4869H23.785V24.0409H22.231V22.4869Z" fill="#22567B"/>
<path fill-rule="evenodd" clip-rule="evenodd" d="M21.931 22.1869H24.085V24.3409H21.931V22.1869ZM22.531 22.7869V23.7409H23.485V22.7869H22.531Z" fill="#22567B"/>
<path d="M25.3676 22.4869H26.9215V24.0409H25.3676V22.4869Z" fill="#22567B"/>
<path fill-rule="evenodd" clip-rule="evenodd" d="M25.0676 22.1869H27.2215V24.3409H25.0676V22.1869ZM25.6676 22.7869V23.7409H26.6215V22.7869H25.6676Z" fill="#22567B"/>
<path d="M4.19479 31.0338H5.74876V32.5878H4.19479V31.0338Z" fill="#22567B"/>
<path fill-rule="evenodd" clip-rule="evenodd" d="M3.89479 30.7338H6.04875V32.8877H3.89479V30.7338ZM4.49479 31.3338V32.2877H5.44875V31.3338H4.49479Z" fill="#22567B"/>
<path d="M40.0951 40.3577H41.6491V41.9116H40.0951V40.3577Z" fill="#22567B"/>
<path fill-rule="evenodd" clip-rule="evenodd" d="M39.7951 40.0576H41.9491V42.2116H39.7951V40.0576ZM40.3951 40.6576V41.6116H41.3491V40.6576H40.3951Z" fill="#22567B"/>
</svg>
