<svg width="54" height="54" viewBox="0 0 54 54" fill="none" xmlns="http://www.w3.org/2000/svg">
<path d="M2.6764 19.7101C4.04856 19.6555 4.04752 17.6958 2.6764 17.6417H2.67568C1.30343 17.6965 1.30529 19.6562 2.6764 19.7101Z" fill="#22567B"/>
<path d="M24.3741 37.4144V32.7606C24.1889 28.3006 17.8354 28.304 17.6519 32.7606V37.4144C17.837 41.8744 24.1905 41.871 24.3741 37.4144ZM19.7203 37.4144V32.7606C19.7915 31.0452 22.2352 31.0465 22.3057 32.7606V37.4144C22.2345 39.1298 19.7908 39.1285 19.7203 37.4144Z" fill="#22567B"/>
<path d="M29.8012 40.7755C31.6545 40.7755 33.1623 39.2677 33.1623 37.4144V32.7606C32.9771 28.3006 26.6236 28.304 26.4401 32.7606V37.4144C26.4401 39.2678 27.948 40.7755 29.8012 40.7755ZM28.5085 32.7606C28.5797 31.0452 31.0234 31.0465 31.0939 32.7606V37.4144C31.0227 39.1298 28.579 39.1285 28.5085 37.4144V32.7606Z" fill="#22567B"/>
<path d="M14.5484 40.7757C15.1196 40.7757 15.5826 40.3127 15.5826 39.7415V30.4338C15.5826 29.8627 15.1196 29.3997 14.5484 29.3997H12.48C11.1079 29.4543 11.1089 31.4139 12.48 31.468H13.5142V39.7415C13.5142 40.3127 13.9772 40.7757 14.5484 40.7757Z" fill="#22567B"/>
<path d="M35.8034 40.6668C36.3033 40.9199 36.9345 40.7202 37.191 40.2043L41.8448 30.8966C42.1002 30.3858 41.8932 29.7645 41.3823 29.5091C40.8714 29.2536 40.2503 29.4607 39.9947 29.9716L35.3409 39.2792C35.0856 39.7902 35.2926 40.4114 35.8034 40.6668Z" fill="#22567B"/>
<path d="M36.2661 31.4678C37.6382 31.4132 37.6372 29.4535 36.2661 29.3994H36.2653C34.8931 29.4542 34.8949 31.4138 36.2661 31.4678Z" fill="#22567B"/>
<path d="M40.92 38.7068H40.9191C40.348 38.7068 39.8854 39.1698 39.8854 39.741C39.94 41.1126 41.8999 41.1126 41.9542 39.741C41.9542 39.1698 41.4911 38.7068 40.92 38.7068Z" fill="#22567B"/>
<path d="M49.8557 14.2239C51.7401 10.4633 52.0931 6.04962 50.9285 1.97381C50.8305 1.62963 50.5615 1.36054 50.2173 1.2626C47.3473 0.444772 44.3234 0.374551 41.4728 1.05908C39.9626 1.42176 38.521 1.99315 37.1875 2.75151C30.6154 -0.124751 22.7853 -0.124338 16.2138 2.751C14.8804 1.99294 13.4393 1.42166 11.9294 1.05908C9.07864 0.374448 6.0548 0.444876 3.18484 1.2626C2.84067 1.36064 2.57157 1.62963 2.47363 1.97381C0.7843 7.74454 2.32637 14.2596 6.60901 18.477C8.74067 20.6085 11.4235 22.1089 14.3676 22.8159C17.0391 23.4572 19.8427 23.4322 22.5187 22.7703L25.9697 26.2213C26.3736 26.6252 27.0284 26.6252 27.4324 26.2213L30.8834 22.7703C36.4749 24.2036 42.7355 22.6054 46.7932 18.477C47.464 17.8061 48.0722 17.0806 48.613 16.3096C59.1747 38.2594 34.8185 60.4392 13.96 47.8873C13.7182 47.7391 13.4258 47.6967 13.1515 47.7702L12.7498 47.878C10.1599 48.5729 7.57008 49.2677 4.97997 49.9617C4.97563 49.9628 4.97118 49.9641 4.96684 49.9653C4.63869 50.0581 4.29493 49.9676 4.04735 49.7236C3.93038 49.6083 3.67194 49.2886 3.79863 48.8132C4.53134 46.0788 5.26417 43.3472 5.99719 40.6153C6.07083 40.341 6.02843 40.0486 5.87992 39.8065C2.87883 34.9426 1.69862 29.0115 2.57581 23.3492C2.66206 22.7846 2.27435 22.2569 1.70969 22.1706C1.14544 22.0849 0.617384 22.4721 0.531133 23.0368C-0.396734 29.029 0.799606 35.305 3.8856 40.5037C3.19053 43.0942 2.49546 45.685 1.80028 48.2793C1.51826 49.3375 1.81548 50.4283 2.59546 51.1968C3.37741 51.9674 4.47064 52.2517 5.52116 51.958C8.10185 51.2664 10.6826 50.5741 13.2629 49.8817C36.7298 63.2417 62.5994 38.0127 49.8557 14.2239ZM8.07155 17.0144C4.49287 13.4357 3.07925 8.1518 4.31396 3.10293C9.36283 1.86822 14.6467 3.28184 18.2254 6.86052C21.5175 10.1527 22.9774 14.8877 22.229 19.5554L19.3081 16.6346V13.0814C19.2535 11.7093 17.2939 11.7103 17.2398 13.0814V14.5662L13.6201 10.9466V7.39343C13.5655 6.02128 11.6059 6.02232 11.5518 7.39343V8.87821L9.29551 6.62204C8.28656 5.69045 6.90169 7.07677 7.83286 8.08468L10.0891 10.341H8.60436C7.23221 10.3956 7.23325 12.3552 8.60436 12.4093H12.1576L15.7772 16.0289H14.2924C12.9202 16.0836 12.9212 18.0432 14.2924 18.0973H17.8456L20.7664 21.0182C16.0988 21.7665 11.3637 20.3065 8.07155 17.0144ZM26.7011 24.0275L23.9813 21.3077C25.4137 15.6906 23.8171 9.46635 19.688 5.39798C19.2438 4.9538 18.7756 4.53703 18.2862 4.14911C23.6158 2.16627 29.7854 2.16596 35.1154 4.14962C34.6262 4.53734 34.1583 4.95401 33.7142 5.39798C29.585 9.46655 27.9884 15.6905 29.4209 21.3077L26.7011 24.0275ZM45.3306 17.0144C42.0385 20.3065 37.3035 21.7665 32.6358 21.018L35.5566 18.0973H39.1098C40.482 18.0427 40.4809 16.083 39.1098 16.0289H37.6249L41.2446 12.4093H44.7978C46.17 12.3547 46.1689 10.395 44.7978 10.341H43.3129L45.5692 8.08468C46.5008 7.07573 45.1145 5.69086 44.1066 6.62204L41.8503 8.87831V7.39343C41.7957 6.02128 39.836 6.02232 39.7819 7.39343V10.9466L36.1623 14.5662V13.0814C36.1077 11.7093 34.148 11.7103 34.0939 13.0814V16.6346L31.1731 19.5554C30.4247 14.8877 31.8846 10.1527 35.1766 6.86052C38.7554 3.28184 44.0393 1.86822 49.0881 3.10293C50.3229 8.1518 48.9093 13.4357 45.3306 17.0144Z" fill="#22567B"/>
</svg>
