<svg width="23" height="22" viewBox="0 0 23 22" fill="none" xmlns="http://www.w3.org/2000/svg">
<g clip-path="url(#clip0_114_1469)">
<path d="M7.29357 13.7097C7.29357 13.361 7.04005 13.153 6.59274 13.153C6.41009 13.153 6.28638 13.1702 6.22168 13.1867V14.3056C6.29829 14.3221 6.39247 14.3276 6.52229 14.3276C6.99908 14.3276 7.29357 14.0977 7.29357 13.7097Z" fill="white"/>
<path d="M10.0626 13.1647C9.86227 13.1647 9.73282 13.1812 9.65625 13.1984V15.6765C9.73286 15.6937 9.85657 15.6937 9.9684 15.6937C10.781 15.6992 11.311 15.2722 11.311 14.3674C11.3168 13.5807 10.8338 13.1647 10.0626 13.1647Z" fill="white"/>
<path d="M15.2072 0.198975H6.37115C5.08028 0.198975 4.02965 1.20254 4.02965 2.43404V10.6989H3.80096C3.27995 10.6989 2.85742 11.1019 2.85742 11.5996V17.0617C2.85742 17.5594 3.27991 17.9623 3.80096 17.9623H4.02965V18.9639C4.02965 20.1967 5.08028 21.1989 6.37115 21.1989H18.4276C19.7177 21.1989 20.7684 20.1967 20.7684 18.9639V5.48878L15.2072 0.198975ZM5.33271 12.5853C5.60922 12.5407 5.9979 12.5071 6.5455 12.5071C7.0989 12.5071 7.49333 12.6079 7.75835 12.8105C8.0115 13.0013 8.18234 13.3164 8.18234 13.6871C8.18234 14.0578 8.05289 14.3729 7.81735 14.5864C7.51099 14.8616 7.05793 14.9852 6.52794 14.9852C6.40998 14.9852 6.30426 14.9796 6.22158 14.9687V16.3231H5.33271V12.5853ZM18.4276 19.8301H6.37115C5.87132 19.8301 5.4643 19.4416 5.4643 18.9639V17.9623H16.7034C17.2245 17.9623 17.647 17.5594 17.647 17.0617V11.5996C17.647 11.1019 17.2245 10.6989 16.7034 10.6989H5.4643V2.43404C5.4643 1.95763 5.87137 1.56911 6.37115 1.56911L14.6708 1.56083V4.48922C14.6708 5.34457 15.3978 6.03924 16.2946 6.03924L19.2999 6.03101L19.3337 18.9638C19.3337 19.4416 18.9274 19.8301 18.4276 19.8301ZM8.7555 16.306V12.5853C9.08517 12.5352 9.51487 12.5071 9.96834 12.5071C10.722 12.5071 11.2107 12.6362 11.5936 12.9114C12.0057 13.2038 12.2645 13.67 12.2645 14.3392C12.2645 15.0641 11.988 15.5645 11.605 15.8734C11.1872 16.205 10.5512 16.3622 9.77414 16.3622C9.3088 16.3622 8.97913 16.3341 8.7555 16.306ZM15.1814 14.1031V14.7998H13.7564V16.3231H12.8557V12.5352H15.2813V13.2375H13.7564V14.1031H15.1814Z" fill="white"/>
</g>
<defs>
<clipPath id="clip0_114_1469">
<rect width="22" height="21" fill="white" transform="translate(0.812988 0.198975)"/>
</clipPath>
</defs>
</svg>
