<svg width="16" height="13" viewBox="0 0 16 13" fill="none" xmlns="http://www.w3.org/2000/svg">
<path fill-rule="evenodd" clip-rule="evenodd" d="M7.50353 0.896836C7.89406 1.28736 7.89406 1.92053 7.50353 2.31105L4.04397 5.77061H14.5464C15.0987 5.77061 15.5464 6.21832 15.5464 6.77061C15.5464 7.32289 15.0987 7.77061 14.5464 7.77061H4.04397L7.50353 11.2302C7.89406 11.6207 7.89406 12.2539 7.50353 12.6444C7.11301 13.0349 6.47984 13.0349 6.08932 12.6444L0.922654 7.47772C0.735118 7.29018 0.629761 7.03583 0.629761 6.77061C0.629761 6.50539 0.735118 6.25104 0.922654 6.0635L6.08932 0.896836C6.47985 0.506312 7.11301 0.506312 7.50353 0.896836Z" fill="white"/>
</svg>
