<svg width="25" height="25" viewBox="0 0 25 25" fill="none" xmlns="http://www.w3.org/2000/svg">
<path fill-rule="evenodd" clip-rule="evenodd" d="M12.362 4.88773C12.1769 4.833 11.9793 4.833 11.7943 4.88773C11.7431 4.90286 11.6535 4.94018 11.4626 5.08291C11.2617 5.23315 11.0154 5.44773 10.6311 5.78398L5.82952 9.98537C5.38947 10.3704 5.3069 10.4534 5.25133 10.5353C5.18641 10.6309 5.13909 10.7352 5.11073 10.8437C5.08584 10.939 5.07825 11.0545 5.07825 11.6412V17.1891C5.07825 17.6688 5.07879 17.9783 5.09496 18.2153C5.11051 18.4432 5.13712 18.53 5.15437 18.5716C5.25614 18.8173 5.45094 19.0121 5.6953 19.1133C5.73692 19.1305 5.82375 19.1572 6.05175 19.1727C6.28873 19.1889 6.59837 19.1894 7.07799 19.1894C7.5576 19.1894 7.86739 19.1889 8.10452 19.1727C8.33274 19.1572 8.41965 19.1305 8.46119 19.1133C8.70554 19.0121 8.90025 18.8174 9.00202 18.5717C9.01929 18.53 9.04592 18.4432 9.06149 18.2152C9.07768 17.9782 9.07825 17.6686 9.07825 17.189V16.189C9.07825 14.5322 10.4214 13.189 12.0782 13.189C13.7351 13.189 15.0782 14.5322 15.0782 16.189V17.189C15.0782 17.6687 15.0788 17.9783 15.095 18.2153C15.1105 18.4433 15.1371 18.5301 15.1544 18.5717C15.2561 18.8173 15.4509 19.0121 15.6953 19.1133C15.7369 19.1305 15.8238 19.1572 16.0517 19.1727C16.2887 19.1889 16.5984 19.1894 17.078 19.1894C17.5576 19.1894 17.8674 19.1889 18.1045 19.1727C18.3327 19.1572 18.4196 19.1305 18.4612 19.1133C18.7055 19.0121 18.9002 18.8174 19.002 18.5716C19.0193 18.5299 19.0459 18.4431 19.0615 18.2152C19.0777 17.9783 19.0782 17.6687 19.0782 17.1891V11.6412C19.0782 11.056 19.0703 10.9393 19.0453 10.8437C19.0164 10.7333 18.9692 10.6292 18.9054 10.5353C18.8499 10.4534 18.7673 10.3705 18.3272 9.98537L13.5272 5.78537C13.1424 5.44867 12.8957 5.23375 12.6944 5.08331C12.5032 4.94035 12.4134 4.90291 12.362 4.88773ZM11.2271 2.96984C11.7824 2.80563 12.3739 2.80563 12.9292 2.96984C13.298 3.0789 13.6049 3.26682 13.892 3.48149C14.1626 3.68378 14.4676 3.9507 14.8187 4.25789L19.6442 8.48021C19.6656 8.49894 19.6868 8.5175 19.7079 8.53591C20.0454 8.83076 20.3408 9.08872 20.5602 9.41196C20.7522 9.69483 20.894 10.0078 20.9803 10.3381C21.079 10.7158 21.0787 11.108 21.0783 11.5554C21.0783 11.5838 21.0782 11.6124 21.0782 11.6412V17.2197C21.0783 17.659 21.0783 18.0379 21.0568 18.3515C21.0343 18.6814 20.9847 19.0112 20.8498 19.337C20.5456 20.0713 19.9624 20.6563 19.2266 20.9611C18.9006 21.0961 18.5705 21.1456 18.2406 21.1681C17.9272 21.1895 17.5486 21.1894 17.1099 21.1894H17.046C16.6074 21.1894 16.2289 21.1895 15.9156 21.1681C15.5858 21.1456 15.2559 21.0961 14.9299 20.9611C14.1943 20.6563 13.6108 20.0716 13.3066 19.3371C13.1716 19.0112 13.1221 18.6813 13.0996 18.3514C13.0782 18.0382 13.0782 17.6597 13.0782 17.221V16.189C13.0782 15.6368 12.6305 15.189 12.0782 15.189C11.526 15.189 11.0782 15.6368 11.0782 16.189L11.0782 17.2195C11.0783 17.6589 11.0783 18.0379 11.0568 18.3515C11.0343 18.6814 10.9848 19.0112 10.8498 19.3371C10.5456 20.0715 9.96232 20.6563 9.22655 20.9611C8.90055 21.0961 8.57046 21.1456 8.2406 21.1681C7.92721 21.1895 7.54858 21.1894 7.10987 21.1894H7.046C6.60735 21.1894 6.22886 21.1895 5.9156 21.1681C5.58577 21.1456 5.25587 21.0961 4.92994 20.9611C4.19419 20.6563 3.61081 20.0714 3.30661 19.337C3.17161 19.0111 3.1221 18.6813 3.0996 18.3514C3.07822 18.0382 3.07823 17.6598 3.07825 17.2211L3.07825 11.6412C3.07825 11.6105 3.07822 11.5801 3.07818 11.5499C3.07774 11.1059 3.07734 10.7145 3.1757 10.3381C3.2625 10.0059 3.40566 9.69319 3.59657 9.41196C3.81607 9.08861 4.11141 8.83062 4.44924 8.53552C4.47017 8.51724 4.49126 8.49881 4.51251 8.48022L9.3141 4.27882L9.34077 4.25549C9.69073 3.94925 9.99499 3.68301 10.2649 3.48117C10.5518 3.2667 10.8584 3.07886 11.2271 2.96984Z" fill="#22567B"/>
</svg>
