<svg width="24" height="25" viewBox="0 0 24 25" fill="none" xmlns="http://www.w3.org/2000/svg">
<g id="Navigation / Map_Pin">
<path id="Vector (Stroke)" fill-rule="evenodd" clip-rule="evenodd" d="M12.0001 4.36768C10.4053 4.36768 8.87785 4.99446 7.75344 6.10651C6.62939 7.21821 6 8.72327 6 10.2905C6 12.426 6.9376 14.4385 8.1689 16.1504C9.39515 17.8553 10.8543 19.1802 11.7567 19.9192C11.826 19.9759 11.877 20.0176 11.9217 20.0528C11.9581 20.0814 11.9827 20.0998 12.0001 20.1119C12.0173 20.0999 12.0419 20.0817 12.0783 20.053C12.1229 20.0179 12.174 19.9762 12.2434 19.9193C13.1459 19.1804 14.6049 17.8555 15.8311 16.1507C17.0624 14.4388 17.9999 12.4264 17.9999 10.291C17.9999 8.72361 17.3705 7.21803 16.2465 6.1064C15.1221 4.99435 13.5949 4.36768 12.0001 4.36768ZM6.34706 4.68451C7.84816 3.1999 9.88186 2.36768 12.0001 2.36768C14.1183 2.36768 16.1518 3.19979 17.6529 4.6844C19.1544 6.16942 19.9999 8.1861 19.9999 10.291C19.9999 13.0073 18.8154 15.4268 17.4548 17.3185C16.0892 19.2172 14.4867 20.6674 13.5105 21.4668C13.4941 21.4801 13.4774 21.4939 13.4603 21.508C13.239 21.6907 12.9509 21.9284 12.542 22.0435C12.2086 22.1374 11.7911 22.1374 11.4577 22.0435C11.0494 21.9285 10.76 21.6897 10.5405 21.5084C10.5231 21.4941 10.5062 21.4801 10.4897 21.4666C9.5134 20.6672 7.91092 19.2169 6.54525 17.3182C5.18463 15.4265 4 13.0069 4 10.2905C4 8.18556 4.84561 6.16946 6.34706 4.68451ZM12 8.36768C11.4477 8.36768 11 8.81539 11 9.36768C11 9.91996 11.4477 10.3677 12 10.3677C12.5523 10.3677 13 9.91996 13 9.36768C13 8.81539 12.5523 8.36768 12 8.36768ZM9 9.36768C9 7.71082 10.3431 6.36768 12 6.36768C13.6569 6.36768 15 7.71082 15 9.36768C15 11.0245 13.6569 12.3677 12 12.3677C10.3431 12.3677 9 11.0245 9 9.36768Z" fill="white"/>
</g>
</svg>
