<svg width="24" height="25" viewBox="0 0 24 25" fill="none" xmlns="http://www.w3.org/2000/svg">
<g id="Communication / Phone">
<path id="Vector (Stroke)" fill-rule="evenodd" clip-rule="evenodd" d="M4.89474 4.36377C4.40045 4.36377 4 4.76429 4 5.2583C4 13.6007 10.7631 20.3638 19.1055 20.3638C19.5994 20.3638 20 19.9633 20 19.469L20.0005 16.7177C20.0005 16.7177 20.0005 16.7178 20.0005 16.7177C20.0004 16.3089 19.7516 15.9413 19.3721 15.7894C19.3721 15.7894 19.3721 15.7894 19.3721 15.7894L16.7357 14.7352C16.3944 14.5987 16.0061 14.6602 15.7241 14.8952L15.044 15.4624C13.8523 16.4555 12.0985 16.3771 11.0011 15.2797L9.08512 13.3619C9.08501 13.3618 9.08522 13.362 9.08512 13.3619C7.98897 12.2655 7.90687 10.5129 8.90072 9.32027L9.46811 8.63988C9.46818 8.6398 9.46803 8.63997 9.46811 8.63988C9.70363 8.35706 9.76523 7.96836 9.62919 7.62825L8.57409 4.99264C8.42222 4.61298 8.05441 4.36377 7.64551 4.36377H4.89474ZM2 5.2583C2 3.65944 3.29616 2.36377 4.89474 2.36377H7.64551C8.87222 2.36377 9.97535 3.11062 10.4309 4.2496L11.486 6.88521C11.8956 7.90913 11.7094 9.07441 11.0045 9.92025L10.4372 10.6006C10.1067 10.9972 10.1329 11.5813 10.4993 11.9477L12.4153 13.8654C12.7808 14.2306 13.3659 14.2575 13.7633 13.9262L14.4434 13.359C15.2901 12.6534 16.4554 12.4691 17.4782 12.8782C17.4782 12.8782 17.4782 12.8782 17.4782 12.8782L20.1146 13.9324C21.2537 14.388 22.0005 15.4911 22.0005 16.7177L22 19.469C22 19.469 22 19.4689 22 19.469C21.9999 21.0674 20.7043 22.3638 19.1055 22.3638C9.65849 22.3638 2 14.7053 2 5.2583Z" fill="white"/>
</g>
</svg>
