<svg width="16" height="13" viewBox="0 0 16 13" fill="none" xmlns="http://www.w3.org/2000/svg">
<path fill-rule="evenodd" clip-rule="evenodd" d="M8.60694 0.658433C8.21641 1.04896 8.21641 1.68212 8.60694 2.07265L12.0665 5.53221H1.56404C1.01176 5.53221 0.564045 5.97992 0.564045 6.53221C0.564045 7.08449 1.01176 7.53221 1.56404 7.53221H12.0665L8.60694 10.9918C8.21642 11.3823 8.21642 12.0155 8.60694 12.406C8.99746 12.7965 9.63063 12.7965 10.0212 12.406L15.1878 7.23931C15.3754 7.05178 15.4807 6.79742 15.4807 6.53221C15.4807 6.26699 15.3754 6.01264 15.1878 5.8251L10.0212 0.658433C9.63063 0.267908 8.99746 0.267908 8.60694 0.658433Z" fill="white"/>
</svg>
