<svg width="19" height="19" viewBox="0 0 19 19" fill="none" xmlns="http://www.w3.org/2000/svg">
<path d="M8.89516 1.08928C9.21162 0.449652 9.72845 0.449652 10.0449 1.08928L12.0163 5.08586C12.3328 5.72549 13.1691 6.33335 13.8747 6.43659L18.2849 7.07622C18.9911 7.17946 19.1512 7.67124 18.6404 8.16914L15.4496 11.2799C14.9383 11.7778 14.6194 12.762 14.7391 13.4645L15.4924 17.8564C15.6128 18.5595 15.1955 18.8632 14.5632 18.5314L10.6198 16.4574C9.98747 16.125 8.9532 16.125 8.32152 16.4574L4.37686 18.5314C3.74579 18.8632 3.32731 18.5595 3.44766 17.8564L4.20092 13.4645C4.32127 12.762 4.00176 11.7778 3.49104 11.2799L0.299631 8.16914C-0.211703 7.67124 -0.0516436 7.17946 0.654571 7.07622L5.06474 6.43659C5.77096 6.33335 6.6073 5.72549 6.92375 5.08586L8.89516 1.08928Z" fill="#FFB155"/>
</svg>
