<svg width="56" height="54" viewBox="0 0 56 54" fill="none" xmlns="http://www.w3.org/2000/svg">
<path d="M14.8127 31.1032C15.2442 31.179 15.6586 30.8914 15.735 30.4565C16.5883 25.5995 15.9124 21.3518 13.7805 18.1725C13.5355 17.807 13.0407 17.7095 12.6754 17.9544C12.3101 18.1995 12.2125 18.6942 12.4575 19.0595C14.356 21.8908 14.9468 25.7365 14.1661 30.1809C14.0899 30.6141 14.3794 31.027 14.8127 31.1032ZM47.8529 1.39721C44.726 -0.59929 40.5171 1.63296 40.5171 5.42631C40.5171 9.24079 44.4711 11.6946 46.8281 12.8178C47.4795 13.1283 48.2265 13.1281 48.878 12.8178C51.2349 11.6947 55.1888 9.24068 55.1888 5.42631C55.1888 1.64019 50.9879 -0.603857 47.8529 1.39721ZM48.1927 11.3799C47.9768 11.4828 47.7291 11.4828 47.5134 11.3799C45.8887 10.6057 42.11 8.47564 42.11 5.42642C42.11 2.8041 45.112 1.32552 47.1894 2.87377C47.5867 3.16963 48.1201 3.16942 48.5164 2.87377C50.5944 1.32531 53.5958 2.80442 53.5958 5.42631C53.5958 8.47564 49.8172 10.6056 48.1927 11.3799ZM47.9506 24.6496C45.6953 24.6496 43.8604 26.4845 43.8604 28.7399V29.8939C42.8992 28.7517 41.9819 27.7244 41.1108 26.8132C42.9441 23.8789 43.2041 21.5606 41.8809 19.9168C41.168 19.0314 40.1195 18.5083 38.9282 18.4439L39.931 17.4411C41.7429 15.6292 41.7433 12.6958 39.931 10.8834C39.0596 10.0122 37.9249 9.56076 36.7809 9.52932C37.8419 7.74936 37.607 5.40634 36.0765 3.87563C34.2685 2.06773 31.3267 2.06773 29.5187 3.87573L28.8753 4.51918C28.8071 2.84849 27.7545 1.3971 26.2501 0.933871C25.8296 0.803887 25.384 1.04007 25.2544 1.46039C25.1248 1.88083 25.3606 2.32653 25.781 2.45609C26.0129 2.52756 26.2207 2.63875 26.4164 2.79592C27.6578 3.79205 27.5181 5.87584 26.352 7.04241C26.3373 7.05717 20.3811 13.0132 20.37 13.0244C20.0589 13.3355 20.0589 13.8397 20.37 14.1508C20.6811 14.4618 21.1854 14.4617 21.4964 14.1508C21.991 13.6562 29.822 5.82518 30.645 5.00216C31.8317 3.81531 33.763 3.8152 34.9498 5.00205C36.1367 6.18901 36.1367 8.12009 34.9498 9.30684L33.3731 10.8835L25.9246 18.3322C25.6136 18.6433 25.6136 19.1476 25.9246 19.4586C26.2358 19.7697 26.74 19.7696 27.0509 19.4586L34.4996 12.01C35.6864 10.8231 37.6173 10.8231 38.8044 12.01C39.9938 13.1994 39.9941 15.1248 38.8042 16.3147C37.6919 17.427 34.7109 20.408 33.5263 21.5926C31.7004 21.3906 30.3697 22.6345 30.1149 24.2352C29.9904 24.1474 29.0805 22.9125 27.2377 22.9125C24.4681 22.9125 22.639 25.8291 23.8738 28.3299C23.049 28.4167 22.2475 28.7756 21.6168 29.4065C20.1537 30.8697 20.1537 33.2505 21.6168 34.7139L22.1183 35.2153C20.4663 35.486 19.1648 36.924 19.4738 38.9738C19.5397 39.4117 19.6761 39.8775 19.881 40.3701C15.8309 40.481 11.8853 38.9803 9.14404 36.2391C2.39057 29.4851 2.40204 23.72 2.41415 17.6164C2.41574 16.8438 2.41542 17.1245 2.40905 9.84919C2.40905 7.92915 3.9712 6.367 5.89124 6.367C7.81138 6.367 9.37354 7.92915 9.37354 9.84919V14.2407C9.37354 14.9911 10.3221 15.3248 10.7916 14.7387C15.7459 8.55486 19.7774 4.62983 22.7744 3.07235C23.1648 2.86952 23.3167 2.38866 23.1138 1.99828C22.9109 1.60801 22.4301 1.45593 22.0398 1.65888C19.1464 3.16262 15.4263 6.63908 10.9665 12.0043V9.84919C10.9665 7.0508 8.68973 4.77405 5.89124 4.77405C3.09275 4.77405 0.816101 7.05069 0.816101 9.84919C0.818862 19.1933 0.822898 16.7916 0.821199 17.6131C0.808986 23.7735 0.796349 30.1436 8.01804 37.3653C11.1641 40.5114 15.8319 42.282 20.7011 41.9249C21.5412 43.2642 22.7937 44.7611 24.4526 46.4049C26.8415 48.772 29.4608 50.814 30.6385 51.6091C35.5366 54.9158 42.4274 54.0668 46.4432 50.0514C47.2834 49.2111 48.0311 48.3504 48.6657 47.4931C48.9273 47.1396 48.8529 46.6408 48.4994 46.3791C48.1458 46.1175 47.647 46.1919 47.3854 46.5454C46.7976 47.3396 46.1017 48.1402 45.3168 48.9249C41.7445 52.4971 35.6884 53.0961 31.5298 50.2889C30.4019 49.5273 27.8848 47.5633 25.5738 45.2733C23.8869 43.6017 19.8479 39.2317 21.3438 37.3737C22.0647 36.4782 23.5188 36.6151 24.3411 37.4375L28.7835 41.8799C29.0948 42.191 29.5989 42.1909 29.91 41.8799C30.221 41.5688 30.221 41.0645 29.91 40.7535C29.1229 39.9665 23.532 34.3757 22.7435 33.5871C21.9013 32.7449 21.9013 31.3746 22.7435 30.5325C23.5856 29.6903 24.956 29.6903 25.798 30.5325L31.8942 36.6287C32.2055 36.9397 32.7096 36.9396 33.0207 36.6287C33.3317 36.3175 33.3317 35.8133 33.0207 35.5023C32.6937 35.1753 25.7265 28.2084 25.7106 28.1925C24.8685 27.3503 24.8685 25.98 25.7106 25.1378C26.555 24.2936 27.921 24.2936 28.7652 25.1378C28.8455 25.2182 36.1592 32.5319 36.1701 32.5428C36.4814 32.8538 36.9855 32.8537 37.2966 32.5428C37.6076 32.2316 37.6076 31.7274 37.2966 31.4164C37.1757 31.2955 32.2158 26.3357 32.3288 26.4488C31.5132 25.6325 31.3937 24.1521 32.2648 23.4528C32.9066 22.9379 34.3039 22.8569 37.3159 25.3957C39.2222 27.0027 41.4828 29.4327 44.0351 32.6183C44.5044 33.2037 45.4532 32.8714 45.4532 32.1202V28.7397C45.4532 27.3626 46.5735 26.2423 47.9505 26.2423C49.3276 26.2423 50.4479 27.3626 50.4479 28.7397C50.442 35.4602 50.4428 34.1293 50.444 34.719C50.4499 37.6795 50.4554 40.4759 49.1891 43.4364C49.0161 43.8408 49.2038 44.3089 49.6082 44.4819C50.0128 44.6553 50.4807 44.4672 50.6537 44.0629C52.0713 40.749 52.0408 37.7218 52.0408 34.1226V28.7398C52.0408 26.4845 50.2059 24.6496 47.9506 24.6496ZM35.2597 22.1124L36.3925 20.9796C37.5667 19.805 39.6195 19.6485 40.6401 20.9157C41.4542 21.9269 41.2228 23.5167 39.9566 25.6469C38.6332 24.3612 36.9403 22.8905 35.2597 22.1124Z" fill="#22567B"/>
</svg>
