<svg width="15" height="15" viewBox="0 0 15 15" fill="none" xmlns="http://www.w3.org/2000/svg">
<path fill-rule="evenodd" clip-rule="evenodd" d="M0.904221 0.588792C1.29475 0.198267 1.92791 0.198267 2.31843 0.588792L7.61135 5.8817L12.9043 0.588792C13.2948 0.198267 13.9279 0.198267 14.3185 0.588792C14.709 0.979316 14.709 1.61248 14.3185 2.00301L9.02556 7.29592L14.3184 12.5888C14.7089 12.9793 14.7089 13.6124 14.3184 14.003C13.9279 14.3935 13.2947 14.3935 12.9042 14.003L7.61135 8.71013L2.31843 14.003C1.92791 14.3936 1.29475 14.3936 0.904221 14.003C0.513697 13.6125 0.513697 12.9794 0.904221 12.5888L6.19713 7.29592L0.904221 2.00301C0.513697 1.61248 0.513697 0.979316 0.904221 0.588792Z" fill="#22567B"/>
</svg>
