<svg width="38" height="39" viewBox="0 0 38 39" fill="none" xmlns="http://www.w3.org/2000/svg">
<path d="M18.6447 38.0007C14.3765 37.9983 10.2402 36.5207 6.93682 33.8183C3.63339 31.1159 1.36586 27.3548 0.518376 23.1722C-0.329111 18.9896 0.295555 14.6427 2.28655 10.8679C4.27754 7.09305 7.51244 4.12243 11.4432 2.45926C15.9642 0.549615 21.0588 0.513853 25.6061 2.35984C30.1535 4.20583 33.7812 7.78236 35.6911 12.3026C37.6011 16.8229 37.6369 21.9166 35.7906 26.4633C33.9443 31.0099 30.3672 34.637 25.8462 36.5467C23.568 37.5109 21.1186 38.0054 18.6447 38.0007ZM18.6447 2.42814C9.22802 2.42814 1.56713 10.0878 1.56713 19.503C1.56713 28.9181 9.22802 36.5778 18.6447 36.5778C28.0614 36.5778 35.7223 28.9181 35.7223 19.503C35.7223 10.0878 28.0614 2.42814 18.6447 2.42814Z" fill="white"/>
<path fill-rule="evenodd" clip-rule="evenodd" d="M25.5498 2.49893C21.0393 0.667897 15.986 0.703369 11.5017 2.59754C7.60281 4.24723 4.39416 7.19376 2.41932 10.938C0.444472 14.6822 -0.175129 18.9939 0.665487 23.1426C1.5061 27.2912 3.75525 31.0218 7.0319 33.7023C10.3085 36.3828 14.4112 37.8484 18.6449 37.8508H18.6451C21.0988 37.8555 23.5282 37.365 25.7878 36.4086L25.7879 36.4086C30.2723 34.5144 33.8204 30.9167 35.6517 26.4069C37.483 21.8972 37.4475 16.8447 35.5531 12.3611C33.6586 7.87749 30.0603 4.32995 25.5498 2.49893ZM11.3849 2.32118C15.9426 0.396056 21.0784 0.360005 25.6627 2.22096C30.2469 4.08191 33.904 7.68743 35.8294 12.2443C37.7548 16.8013 37.7909 21.9363 35.9296 26.5198C34.0684 31.1033 30.4623 34.7598 25.9047 36.6849C23.6079 37.657 21.1386 38.1556 18.6445 38.1508L18.6448 38.0008L18.6447 38.1508C18.6446 38.1508 18.6446 38.1508 18.6445 38.1508C14.3417 38.1483 10.1721 36.6588 6.84194 33.9345C3.51174 31.2102 1.22582 27.4186 0.371462 23.2021C-0.482898 18.9856 0.146834 14.6034 2.15397 10.798C4.16111 6.99257 7.42223 3.99786 11.3849 2.32122L11.3849 2.32118ZM1.41723 19.5031C1.41723 10.005 9.1453 2.27823 18.6448 2.27823C28.1443 2.27823 35.8724 10.005 35.8724 19.5031C35.8724 29.0011 28.1443 36.7279 18.6448 36.7279C9.1453 36.7279 1.41723 29.0011 1.41723 19.5031ZM18.6448 2.57823C9.31094 2.57823 1.71723 10.1708 1.71723 19.5031C1.71723 28.8354 9.31094 36.4279 18.6448 36.4279C27.9787 36.4279 35.5724 28.8354 35.5724 19.5031C35.5724 10.1708 27.9787 2.57823 18.6448 2.57823Z" fill="white"/>
<path d="M20.188 12.4559C20.0877 12.4559 19.989 12.4313 19.9004 12.3843L18.6498 11.7196L17.3992 12.3843C17.2981 12.4381 17.1839 12.4625 17.0697 12.4547C16.9554 12.4469 16.8456 12.4072 16.7528 12.3402C16.6599 12.2732 16.5877 12.1815 16.5443 12.0755C16.5009 11.9696 16.4881 11.8536 16.5073 11.7407L16.7478 10.3241L15.7308 9.32177C15.6497 9.2418 15.5925 9.14082 15.5656 9.03015C15.5388 8.91948 15.5433 8.80351 15.5787 8.69527C15.6141 8.58703 15.6789 8.49079 15.766 8.41737C15.8531 8.34395 15.9589 8.29625 16.0716 8.27963L17.4719 8.07365L18.0991 6.78954C18.1495 6.68638 18.2278 6.59944 18.3251 6.53862C18.4225 6.4778 18.535 6.44556 18.6498 6.44556C18.7646 6.44556 18.8771 6.4778 18.9744 6.53862C19.0718 6.59944 19.1501 6.68638 19.2004 6.78954L19.8277 8.07442L21.228 8.2804C21.3407 8.29702 21.4465 8.34472 21.5336 8.41814C21.6206 8.49156 21.6855 8.58779 21.7209 8.69604C21.7563 8.80428 21.7608 8.92025 21.7339 9.03091C21.7071 9.14158 21.6499 9.24257 21.5688 9.32254L20.5518 10.3249L20.7922 11.7414C20.807 11.8293 20.8025 11.9193 20.779 12.0052C20.7554 12.0911 20.7134 12.1708 20.6559 12.2388C20.5984 12.3069 20.5267 12.3615 20.4459 12.399C20.3651 12.4365 20.2771 12.4559 20.188 12.4559ZM18.6498 10.4133C18.7501 10.4133 18.8488 10.4379 18.9374 10.4849L19.3773 10.7177L19.2919 10.2142C19.2755 10.1171 19.2826 10.0174 19.3129 9.9236C19.3432 9.82982 19.3956 9.74473 19.4658 9.67554L19.8338 9.31297L19.3299 9.23984C19.2313 9.22535 19.1378 9.18706 19.0574 9.12829C18.977 9.06952 18.9121 8.99203 18.8684 8.90254L18.6498 8.45383L18.4311 8.90178C18.3875 8.99141 18.3227 9.06905 18.2423 9.12796C18.1619 9.18687 18.0683 9.22528 17.9697 9.23984L17.4673 9.31373L17.8353 9.6763C17.9055 9.74549 17.9579 9.83059 17.9882 9.92436C18.0185 10.0181 18.0257 10.1178 18.0092 10.215L17.9222 10.7177L18.3607 10.4849C18.4497 10.4376 18.549 10.413 18.6498 10.4133Z" fill="white"/>
<path d="M20.188 32.556C20.0877 32.556 19.989 32.5314 19.9004 32.4844L18.6498 31.8197L17.3992 32.4844C17.2981 32.5382 17.1839 32.5625 17.0697 32.5548C16.9554 32.547 16.8456 32.5073 16.7528 32.4403C16.6599 32.3733 16.5877 32.2816 16.5443 32.1756C16.5009 32.0697 16.4881 31.9537 16.5073 31.8408L16.7478 30.4242L15.7308 29.4219C15.6497 29.3419 15.5925 29.2409 15.5656 29.1302C15.5388 29.0196 15.5433 28.9036 15.5787 28.7954C15.6141 28.6871 15.6789 28.5909 15.766 28.5175C15.8531 28.4441 15.9589 28.3964 16.0716 28.3797L17.4719 28.1737L18.0991 26.8896C18.1495 26.7865 18.2278 26.6995 18.3251 26.6387C18.4225 26.5779 18.535 26.5457 18.6498 26.5457C18.7646 26.5457 18.8771 26.5779 18.9744 26.6387C19.0718 26.6995 19.1501 26.7865 19.2004 26.8896L19.8277 28.1745L21.228 28.3805C21.3407 28.3971 21.4465 28.4448 21.5336 28.5182C21.6206 28.5917 21.6855 28.6879 21.7209 28.7961C21.7563 28.9044 21.7608 29.0203 21.7339 29.131C21.7071 29.2417 21.6499 29.3427 21.5688 29.4226L20.5518 30.425L20.7922 31.8415C20.807 31.9294 20.8025 32.0194 20.779 32.1053C20.7554 32.1912 20.7134 32.2709 20.6559 32.3389C20.5984 32.4069 20.5267 32.4616 20.4459 32.4991C20.3651 32.5366 20.2771 32.556 20.188 32.556ZM18.6498 30.5134C18.7501 30.5134 18.8488 30.538 18.9374 30.585L19.3773 30.8178L19.2919 30.3143C19.2755 30.2172 19.2826 30.1175 19.3129 30.0237C19.3432 29.9299 19.3956 29.8448 19.4658 29.7756L19.8338 29.4131L19.3299 29.3399C19.2313 29.3255 19.1378 29.2872 19.0574 29.2284C18.977 29.1696 18.9121 29.0921 18.8684 29.0026L18.6498 28.5539L18.4311 29.0019C18.3875 29.0915 18.3227 29.1691 18.2423 29.2281C18.1619 29.287 18.0683 29.3254 17.9697 29.3399L17.4673 29.4138L17.8353 29.7764C17.9055 29.8456 17.9579 29.9307 17.9882 30.0245C18.0185 30.1182 18.0257 30.2179 18.0092 30.3151L17.9222 30.8178L18.3607 30.585C18.4497 30.5377 18.549 30.5131 18.6498 30.5134Z" fill="white"/>
<path d="M13.391 15.2712C13.2907 15.2712 13.1919 15.2466 13.1034 15.1996L11.8528 14.5349L10.6018 15.1996C10.5007 15.2533 10.3866 15.2776 10.2724 15.2697C10.1582 15.2619 10.0485 15.2222 9.95567 15.1552C9.86287 15.0882 9.7907 14.9966 9.74734 14.8907C9.70397 14.7848 9.69115 14.6688 9.71032 14.556L9.95079 13.1394L8.93376 12.1371C8.85255 12.0571 8.79526 11.9561 8.76833 11.8454C8.7414 11.7347 8.74589 11.6186 8.78129 11.5103C8.8167 11.402 8.88162 11.3057 8.96876 11.2323C9.0559 11.1588 9.1618 11.1111 9.27456 11.0946L10.6749 10.889L11.3021 9.6041C11.3524 9.50083 11.4306 9.41376 11.528 9.35284C11.6254 9.29191 11.7379 9.25958 11.8528 9.25952C11.9676 9.25958 12.0802 9.29191 12.1775 9.35284C12.2749 9.41376 12.3532 9.50083 12.4034 9.6041L13.0306 10.889L14.4306 11.0946C14.5434 11.1111 14.6493 11.1587 14.7365 11.2321C14.8237 11.3056 14.8887 11.4019 14.9241 11.5102C14.9596 11.6185 14.9641 11.7346 14.9372 11.8453C14.9103 11.9561 14.853 12.0571 14.7718 12.1371L13.7547 13.1394L13.9948 14.556C14.0098 14.6439 14.0053 14.7339 13.9819 14.8199C13.9584 14.9059 13.9165 14.9857 13.859 15.0538C13.8015 15.1219 13.7298 15.1766 13.649 15.2141C13.5681 15.2517 13.4801 15.2712 13.391 15.2712ZM10.6703 12.1279L11.0383 12.4909C11.1086 12.5601 11.1611 12.6453 11.1914 12.7393C11.2216 12.8332 11.2288 12.933 11.2121 13.0303L11.1267 13.5338L11.566 13.3002C11.6544 13.2533 11.753 13.2288 11.8531 13.2288C11.9533 13.2288 12.0519 13.2533 12.1403 13.3002L12.5784 13.533L12.493 13.0303C12.4766 12.9331 12.4838 12.8334 12.5141 12.7396C12.5445 12.6459 12.597 12.5608 12.6672 12.4916L13.0352 12.1287L12.5328 12.0552C12.4342 12.0407 12.3406 12.0024 12.2601 11.9435C12.1796 11.8847 12.1147 11.8071 12.071 11.7175L11.8528 11.2692L11.6341 11.7167C11.5906 11.806 11.5261 11.8834 11.4461 11.9423C11.366 12.0011 11.2728 12.0396 11.1746 12.0544L10.6703 12.1279Z" fill="white"/>
<path d="M24.5299 29.4835C24.4407 29.4835 24.3526 29.4641 24.2718 29.4266C24.1909 29.389 24.1192 29.3343 24.0616 29.2662C24.0041 29.1981 23.9621 29.1183 23.9386 29.0323C23.9151 28.9463 23.9107 28.8562 23.9257 28.7683L24.1661 27.3517L23.1491 26.3494C23.0679 26.2694 23.0106 26.1684 22.9837 26.0577C22.9567 25.947 22.9612 25.8309 22.9966 25.7226C23.032 25.6143 23.097 25.518 23.1841 25.4446C23.2712 25.3711 23.3771 25.3234 23.4899 25.3069L24.8918 25.1013L25.519 23.8164C25.5693 23.7132 25.6476 23.6263 25.745 23.5655C25.8423 23.5047 25.9548 23.4724 26.0696 23.4724C26.1844 23.4724 26.2969 23.5047 26.3943 23.5655C26.4916 23.6263 26.5699 23.7132 26.6203 23.8164L27.2475 25.1013L28.6444 25.3069C28.7575 25.3228 28.8638 25.3701 28.9515 25.4433C29.0391 25.5165 29.1045 25.6128 29.1404 25.7212C29.1762 25.8296 29.181 25.9459 29.1543 26.0569C29.1275 26.1679 29.0703 26.2692 28.989 26.3494L27.972 27.3517L28.2125 28.7683C28.2317 28.8812 28.2189 28.9972 28.1755 29.1032C28.1321 29.2091 28.0599 29.3008 27.967 29.3678C27.8742 29.4349 27.7644 29.4745 27.6501 29.4823C27.5359 29.4901 27.4217 29.4657 27.3206 29.4119L26.07 28.7472L24.8194 29.4119C24.7303 29.4592 24.6308 29.4838 24.5299 29.4835ZM24.8856 26.3402L25.2536 26.7032C25.3239 26.7723 25.3764 26.8574 25.4067 26.9512C25.437 27.0449 25.4443 27.1447 25.4279 27.2418L25.3425 27.7453L25.7809 27.5125C25.8694 27.4656 25.968 27.4411 26.0681 27.4411C26.1682 27.4411 26.2668 27.4656 26.3553 27.5125L26.7933 27.7453L26.708 27.2418C26.6916 27.1446 26.699 27.0448 26.7294 26.9511C26.7599 26.8573 26.8126 26.7722 26.883 26.7032L27.2509 26.3402L26.7485 26.2667C26.65 26.2522 26.5564 26.2138 26.476 26.155C26.3956 26.0961 26.3308 26.0186 26.2871 25.929L26.0685 25.4815L25.8491 25.929C25.8056 26.0183 25.7411 26.0957 25.661 26.1546C25.581 26.2134 25.4878 26.2519 25.3896 26.2667L24.8856 26.3402Z" fill="white"/>
<path d="M10.1367 22.506C10.0364 22.506 9.93769 22.4814 9.84914 22.4344L8.59852 21.7698L7.3479 22.4344C7.2468 22.4882 7.13265 22.5126 7.01839 22.5048C6.90414 22.497 6.79435 22.4574 6.70149 22.3904C6.60863 22.3234 6.53641 22.2317 6.49303 22.1257C6.44966 22.0197 6.43685 21.9037 6.45608 21.7908L6.69655 20.3742L5.67951 19.3719C5.59842 19.292 5.54123 19.191 5.51436 19.0803C5.48749 18.9696 5.49201 18.8537 5.52741 18.7454C5.56281 18.6372 5.62768 18.5409 5.71475 18.4675C5.80182 18.3941 5.90763 18.3464 6.02031 18.3298L7.42065 18.1223L8.04788 16.8374C8.09821 16.7342 8.17652 16.6473 8.27388 16.5865C8.37123 16.5257 8.48372 16.4934 8.59852 16.4934C8.71332 16.4934 8.8258 16.5257 8.92316 16.5865C9.02052 16.6473 9.09882 16.7342 9.14916 16.8374L9.77638 18.1223L11.1767 18.3282C11.2894 18.3449 11.3952 18.3926 11.4823 18.466C11.5694 18.5394 11.6342 18.6356 11.6696 18.7439C11.705 18.8521 11.7095 18.9681 11.6827 19.0788C11.6558 19.1894 11.5986 19.2904 11.5175 19.3704L10.5005 20.3727L10.741 21.7893C10.7559 21.8772 10.7515 21.9673 10.728 22.0533C10.7045 22.1393 10.6625 22.2191 10.605 22.2872C10.5474 22.3553 10.4757 22.41 10.3948 22.4476C10.314 22.4851 10.2259 22.5045 10.1367 22.5045V22.506ZM8.59852 20.4635C8.6986 20.4633 8.7972 20.4876 8.88571 20.5343L9.32415 20.7671L9.23914 20.2663C9.22265 20.1691 9.22984 20.0694 9.26011 19.9757C9.29037 19.8819 9.34282 19.7968 9.41299 19.7276L9.78098 19.365L9.27859 19.2911C9.18039 19.2764 9.08726 19.2379 9.00721 19.1792C8.92716 19.1204 8.8626 19.0431 8.81908 18.9538L8.59852 18.5051L8.37987 18.9531C8.33635 19.0423 8.27179 19.1197 8.19174 19.1784C8.1117 19.2372 8.01856 19.2756 7.92037 19.2904L7.41797 19.3643L7.78596 19.7268C7.85591 19.7963 7.90807 19.8816 7.938 19.9755C7.96793 20.0694 7.97476 20.1692 7.95789 20.2663L7.8725 20.7697L8.31133 20.5343C8.39984 20.4876 8.49844 20.4633 8.59852 20.4635Z" fill="white"/>
<path d="M30.2397 22.506C30.1395 22.506 30.0407 22.4814 29.9522 22.4344L28.7015 21.7698L27.4509 22.4344C27.3498 22.4882 27.2357 22.5126 27.1214 22.5048C27.0072 22.497 26.8974 22.4574 26.8045 22.3904C26.7117 22.3234 26.6394 22.2317 26.5961 22.1257C26.5527 22.0197 26.5399 21.9037 26.5591 21.7908L26.7996 20.3742L25.7825 19.3719C25.7014 19.292 25.6443 19.191 25.6174 19.0803C25.5905 18.9696 25.595 18.8537 25.6304 18.7454C25.6658 18.6372 25.7307 18.5409 25.8178 18.4675C25.9048 18.3941 26.0107 18.3464 26.1233 18.3298L27.5237 18.1223L28.1509 16.8374C28.2012 16.7342 28.2795 16.6473 28.3769 16.5865C28.4743 16.5257 28.5867 16.4934 28.7015 16.4934C28.8163 16.4934 28.9288 16.5257 29.0262 16.5865C29.1235 16.6473 29.2019 16.7342 29.2522 16.8374L29.8794 18.1223L31.2798 18.3282C31.3924 18.3449 31.4982 18.3926 31.5853 18.466C31.6724 18.5394 31.7373 18.6356 31.7727 18.7439C31.8081 18.8521 31.8126 18.9681 31.7857 19.0788C31.7588 19.1894 31.7016 19.2904 31.6206 19.3704L30.6035 20.3727L30.844 21.7893C30.8589 21.8772 30.8545 21.9673 30.831 22.0533C30.8075 22.1393 30.7655 22.2191 30.708 22.2872C30.6505 22.3553 30.5788 22.41 30.4979 22.4476C30.417 22.4851 30.3289 22.5045 30.2397 22.5045V22.506ZM28.7015 20.4635C28.8016 20.4633 28.9002 20.4876 28.9887 20.5343L29.4272 20.7671L29.3422 20.2663C29.3257 20.1691 29.3329 20.0694 29.3631 19.9757C29.3934 19.8819 29.4458 19.7968 29.516 19.7276L29.884 19.365L29.3816 19.2911C29.2834 19.2764 29.1903 19.2379 29.1102 19.1792C29.0302 19.1204 28.9656 19.0431 28.9221 18.9538L28.7015 18.5051L28.4829 18.9531C28.4394 19.0423 28.3748 19.1197 28.2948 19.1784C28.2147 19.2372 28.1216 19.2756 28.0234 19.2904L27.521 19.3643L27.889 19.7268C27.9589 19.7963 28.0111 19.8816 28.041 19.9755C28.071 20.0694 28.0778 20.1692 28.0609 20.2663L27.9755 20.7697L28.4144 20.5343C28.5029 20.4876 28.6015 20.4633 28.7015 20.4635Z" fill="white"/>
<path d="M13.391 28.8636C13.2907 28.8637 13.1919 28.8391 13.1034 28.792L11.8528 28.1273L10.6018 28.792C10.5007 28.8456 10.3866 28.8699 10.2725 28.8621C10.1583 28.8543 10.0487 28.8146 9.95588 28.7477C9.8631 28.6807 9.79092 28.5892 9.74752 28.4833C9.70412 28.3775 9.69123 28.2616 9.71032 28.1488L9.95079 26.7322L8.93376 25.7299C8.85255 25.6499 8.79526 25.5489 8.76833 25.4382C8.7414 25.3274 8.74589 25.2114 8.78129 25.1031C8.8167 24.9948 8.88162 24.8985 8.96876 24.825C9.0559 24.7516 9.1618 24.7039 9.27456 24.6873L10.6749 24.4817L11.3021 23.1969C11.3524 23.0936 11.4306 23.0065 11.528 22.9456C11.6254 22.8847 11.7379 22.8523 11.8528 22.8523C11.9676 22.8523 12.0802 22.8847 12.1775 22.9456C12.2749 23.0065 12.3532 23.0936 12.4034 23.1969L13.0306 24.4817L14.4306 24.6873C14.5434 24.7039 14.6493 24.7515 14.7365 24.8249C14.8237 24.8983 14.8887 24.9946 14.9241 25.1029C14.9596 25.2113 14.9641 25.3273 14.9372 25.4381C14.9103 25.5488 14.853 25.6499 14.7718 25.7299L13.7547 26.7318L13.9948 28.1484C14.0097 28.2362 14.0052 28.3262 13.9817 28.4122C13.9582 28.4981 13.9163 28.5778 13.8588 28.6459C13.8013 28.7139 13.7297 28.7686 13.6489 28.8062C13.5681 28.8437 13.48 28.8632 13.391 28.8632V28.8636ZM11.8528 26.821C11.953 26.8211 12.0517 26.8457 12.1403 26.8926L12.5784 27.1258L12.493 26.6219C12.4766 26.5247 12.4838 26.425 12.5141 26.3313C12.5445 26.2375 12.597 26.1524 12.6672 26.0832L13.0352 25.7207L12.5328 25.6468C12.4342 25.6324 12.3406 25.5941 12.2602 25.5353C12.1797 25.4765 12.1148 25.399 12.071 25.3095L11.8528 24.8608L11.6341 25.3083C11.5906 25.3976 11.526 25.4749 11.446 25.5337C11.3659 25.5924 11.2728 25.6309 11.1746 25.6456L10.6722 25.7195L11.0402 26.0821C11.1102 26.1516 11.1624 26.237 11.1923 26.3309C11.2223 26.4249 11.2291 26.5248 11.2121 26.6219L11.1267 27.1258L11.566 26.8926C11.6543 26.8458 11.7528 26.8213 11.8528 26.821Z" fill="white"/>
<path d="M27.6064 14.6505C27.5062 14.6505 27.4074 14.6259 27.3189 14.5789L26.0682 13.9142L24.8176 14.5789C24.7166 14.6326 24.6025 14.657 24.4882 14.6492C24.374 14.6415 24.2643 14.6019 24.1714 14.5349C24.0786 14.4679 24.0064 14.3763 23.9629 14.2704C23.9195 14.1645 23.9067 14.0485 23.9258 13.9357L24.1663 12.5191L23.1492 11.5168C23.0681 11.4368 23.011 11.3358 22.9841 11.2251C22.9572 11.1145 22.9617 10.9985 22.9971 10.8903C23.0325 10.782 23.0974 10.6858 23.1845 10.6124C23.2715 10.5389 23.3774 10.4912 23.49 10.4746L24.8919 10.2686L25.5191 8.98339C25.5695 8.88023 25.6478 8.79329 25.7451 8.73247C25.8425 8.67165 25.955 8.6394 26.0698 8.6394C26.1846 8.6394 26.2971 8.67165 26.3944 8.73247C26.4918 8.79329 26.5701 8.88023 26.6204 8.98339L27.2476 10.2686L28.6445 10.4742C28.7575 10.4903 28.8638 10.5376 28.9514 10.6107C29.0389 10.6839 29.1043 10.7801 29.1401 10.8884C29.176 10.9968 29.1808 11.113 29.1541 11.2239C29.1275 11.3349 29.0703 11.4362 28.9892 11.5164L27.9721 12.5187L28.2126 13.9353C28.2275 14.0232 28.223 14.1132 28.1995 14.1991C28.176 14.2851 28.134 14.3649 28.0764 14.4329C28.0189 14.501 27.9472 14.5557 27.8664 14.5932C27.7855 14.6307 27.6975 14.6501 27.6084 14.6501L27.6064 14.6505ZM26.0682 12.6091C26.1685 12.609 26.2673 12.6336 26.3558 12.6807L26.7939 12.9138L26.7085 12.41C26.6919 12.3126 26.6991 12.2126 26.7295 12.1186C26.7599 12.0246 26.8126 11.9394 26.8831 11.8701L27.2511 11.5076L26.7487 11.4337C26.6502 11.4192 26.5566 11.3809 26.4762 11.3221C26.3958 11.2634 26.331 11.1859 26.2873 11.0964L26.0686 10.6488L25.8492 11.0964C25.8057 11.1856 25.7411 11.263 25.6611 11.3217C25.581 11.3805 25.4879 11.4189 25.3897 11.4337L24.8873 11.5076L25.2553 11.8701C25.3253 11.9394 25.3775 12.0246 25.4076 12.1184C25.4376 12.2121 25.4446 12.3118 25.428 12.4088L25.3426 12.9127L25.7811 12.6795C25.8696 12.6329 25.9682 12.6088 26.0682 12.6091Z" fill="white"/>
</svg>
