<svg width="36" height="30" viewBox="0 0 36 30" fill="none" xmlns="http://www.w3.org/2000/svg">
<g opacity="0.99">
<path d="M9.88732 24.7908C15.3479 24.7908 19.7746 20.349 19.7746 14.8698C19.7746 9.39054 15.3479 4.94873 9.88732 4.94873C4.42671 4.94873 0 9.39054 0 14.8698C0 20.349 4.42671 24.7908 9.88732 24.7908Z" fill="url(#paint0_linear_77_95)"/>
<path d="M26.0825 24.7906C31.5431 24.7906 35.9698 20.3488 35.9698 14.8695C35.9698 9.39029 31.5431 4.94849 26.0825 4.94849C20.6219 4.94849 16.1952 9.39029 16.1952 14.8695C16.1952 20.3488 20.6219 24.7906 26.0825 24.7906Z" fill="url(#paint1_linear_77_95)"/>
<path d="M18 29.1157C25.9809 29.1157 32.4507 22.6239 32.4507 14.6157C32.4507 6.60759 25.9809 0.115723 18 0.115723C10.0191 0.115723 3.54932 6.60759 3.54932 14.6157C3.54932 22.6239 10.0191 29.1157 18 29.1157Z" fill="url(#paint2_linear_77_95)"/>
<path d="M14.314 17.8368H16.9334V21.3519H16.3584L16.1774 20.604C15.794 21.181 15.2155 21.4695 14.4418 21.4695C13.5828 21.4695 12.9262 21.1774 12.4719 20.5934C12.0247 20.0093 11.8011 19.1403 11.8011 17.9864C11.8011 16.8325 12.0353 15.9635 12.5038 15.3795C12.9724 14.7883 13.6325 14.4927 14.4844 14.4927C15.2226 14.4927 15.8153 14.6992 16.2625 15.1124C16.7098 15.5255 16.9334 16.1238 16.9334 16.9073H16.0496C16.0496 16.366 15.9112 15.9635 15.6343 15.7C15.3575 15.4293 14.9742 15.294 14.4844 15.294C13.9236 15.294 13.487 15.5006 13.1747 15.9137C12.8623 16.3268 12.7062 16.9358 12.7062 17.7407V18.2321C12.7062 19.0513 12.8517 19.6638 13.1427 20.0698C13.4409 20.4758 13.8739 20.6788 14.4418 20.6788C14.9955 20.6788 15.4001 20.5221 15.6556 20.2087C15.9183 19.8882 16.0496 19.4074 16.0496 18.7664V18.5954H14.314V17.8368ZM21.117 14.4927C21.9618 14.4927 22.6149 14.7883 23.0763 15.3795C23.5377 15.9635 23.7684 16.8325 23.7684 17.9864C23.7684 19.1332 23.5341 20.0022 23.0656 20.5934C22.6042 21.1774 21.9547 21.4695 21.117 21.4695C20.2794 21.4695 19.6299 21.1774 19.1685 20.5934C18.7071 20.0022 18.4764 19.1332 18.4764 17.9864C18.4764 16.8325 18.7071 15.9635 19.1685 15.3795C19.6299 14.7883 20.2794 14.4927 21.117 14.4927ZM21.117 15.294C20.5705 15.294 20.1445 15.5006 19.8393 15.9137C19.5341 16.3268 19.3814 16.9358 19.3814 17.7407V18.2321C19.3814 19.037 19.5341 19.646 19.8393 20.0591C20.1445 20.4723 20.5705 20.6788 21.117 20.6788C21.6636 20.6788 22.0896 20.4723 22.3948 20.0591C22.7071 19.646 22.8633 19.037 22.8633 18.2321V17.7407C22.8633 16.9358 22.7071 16.3268 22.3948 15.9137C22.0896 15.5006 21.6636 15.294 21.117 15.294Z" fill="white"/>
<path d="M14.314 17.8368V17.5824H14.0605V17.8368H14.314ZM16.9334 17.8368H17.1869V17.5824H16.9334V17.8368ZM16.9334 21.3519V21.6063H17.1869V21.3519H16.9334ZM16.3584 21.3519L16.1121 21.412L16.1591 21.6063H16.3584V21.3519ZM16.1774 20.604L16.4238 20.544L16.2873 19.9801L15.9665 20.4629L16.1774 20.604ZM12.4719 20.5934L12.2709 20.7483L12.2721 20.7499L12.4719 20.5934ZM12.5039 15.3795L12.7014 15.539L12.7023 15.5378L12.5039 15.3795ZM16.9334 16.9073V17.1617H17.1869V16.9073H16.9334ZM16.0496 16.9073H15.7961V17.1617H16.0496V16.9073ZM15.6344 15.7L15.4574 15.8822L15.4599 15.8845L15.6344 15.7ZM13.1428 20.0698L12.9369 20.2184L12.9387 20.2207L13.1428 20.0698ZM15.6557 20.2087L15.4598 20.0472L15.4594 20.0476L15.6557 20.2087ZM16.0496 18.5954H16.3032V18.341H16.0496V18.5954ZM14.314 18.5954H14.0605V18.8498H14.314V18.5954ZM14.314 18.0912H16.9334V17.5824H14.314V18.0912ZM16.6799 17.8368V21.3519H17.1869V17.8368H16.6799ZM16.9334 21.0975H16.3584V21.6063H16.9334V21.0975ZM16.6048 21.2919L16.4238 20.544L15.931 20.6641L16.1121 21.412L16.6048 21.2919ZM15.9665 20.4629C15.6364 20.9597 15.1427 21.2151 14.4418 21.2151V21.7238C15.2884 21.7238 15.9518 21.4022 16.3883 20.7451L15.9665 20.4629ZM14.4418 21.2151C13.6466 21.2151 13.0698 20.9486 12.6718 20.4368L12.2721 20.7499C12.7826 21.4062 13.5191 21.7238 14.4418 21.7238V21.2151ZM12.673 20.4384C12.2743 19.9177 12.0546 19.114 12.0546 17.9864H11.5476C11.5476 19.1666 11.7751 20.1009 12.2709 20.7483L12.673 20.4384ZM12.0546 17.9864C12.0546 16.8608 12.2841 16.0591 12.7014 15.539L12.3064 15.22C11.7866 15.8679 11.5476 16.8041 11.5476 17.9864H12.0546ZM12.7023 15.5378C13.116 15.0158 13.6983 14.7471 14.4844 14.7471V14.2383C13.5668 14.2383 12.8288 14.5607 12.3055 15.2211L12.7023 15.5378ZM14.4844 14.7471C15.1734 14.7471 15.7001 14.9385 16.0909 15.2995L16.4343 14.9252C15.9307 14.46 15.2719 14.2383 14.4844 14.2383V14.7471ZM16.0909 15.2995C16.4721 15.6516 16.6799 16.1734 16.6799 16.9073H17.1869C17.1869 16.0741 16.9475 15.3993 16.4343 14.9252L16.0909 15.2995ZM16.9334 16.6529H16.0496V17.1617H16.9334V16.6529ZM16.3032 16.9073C16.3032 16.3256 16.1541 15.8441 15.8088 15.5154L15.4599 15.8845C15.6683 16.083 15.7961 16.4063 15.7961 16.9073H16.3032ZM15.8113 15.5178C15.4753 15.1893 15.0218 15.0396 14.4844 15.0396V15.5484C14.9266 15.5484 15.2397 15.6693 15.4574 15.8822L15.8113 15.5178ZM14.4844 15.0396C13.8521 15.0396 13.3375 15.2774 12.9727 15.7599L13.3767 16.0674C13.6365 15.7237 13.9951 15.5484 14.4844 15.5484V15.0396ZM12.9727 15.7599C12.613 16.2357 12.4527 16.9091 12.4527 17.7407H12.9597C12.9597 16.9625 13.1117 16.4178 13.3767 16.0674L12.9727 15.7599ZM12.4527 17.7407V18.2321H12.9597V17.7407H12.4527ZM12.4527 18.2321C12.4527 19.0735 12.6007 19.7493 12.9369 20.2184L13.3486 19.9213C13.1027 19.5783 12.9597 19.029 12.9597 18.2321H12.4527ZM12.9387 20.2207C13.2913 20.7009 13.8054 20.9332 14.4418 20.9332V20.4244C13.9424 20.4244 13.5905 20.2507 13.3468 19.9189L12.9387 20.2207ZM14.4418 20.9332C15.0416 20.9332 15.532 20.7621 15.8519 20.3698L15.4594 20.0476C15.2682 20.2821 14.9493 20.4244 14.4418 20.4244V20.9332ZM15.8515 20.3703C16.167 19.9852 16.3032 19.4358 16.3032 18.7664H15.7961C15.7961 19.379 15.6696 19.7912 15.4598 20.0472L15.8515 20.3703ZM16.3032 18.7664V18.5954H15.7961V18.7664H16.3032ZM16.0496 18.341H14.314V18.8498H16.0496V18.341ZM14.5676 18.5954V17.8368H14.0605V18.5954H14.5676ZM23.0763 15.3795L22.8767 15.5363L22.8776 15.5375L23.0763 15.3795ZM23.0657 20.5934L22.8672 20.435L22.867 20.4353L23.0657 20.5934ZM19.1685 20.5934L18.9689 20.7502L18.9699 20.7514L19.1685 20.5934ZM19.1685 15.3795L19.3672 15.5375L19.3682 15.5363L19.1685 15.3795ZM22.3948 20.0591L22.1929 19.9054L22.1912 19.9076L22.3948 20.0591ZM22.3948 15.9137L22.1912 16.0652L22.1929 16.0674L22.3948 15.9137ZM21.1171 14.7471C21.8953 14.7471 22.47 15.0152 22.8767 15.5363L23.2759 15.2226C22.7598 14.5614 22.0284 14.2383 21.1171 14.2383V14.7471ZM22.8776 15.5375C23.2887 16.0578 23.5149 16.8602 23.5149 17.9864H24.0219C24.0219 16.8049 23.7867 15.8692 23.275 15.2214L22.8776 15.5375ZM23.5149 17.9864C23.5149 19.1041 23.2857 19.9069 22.8672 20.435L23.2641 20.7517C23.7826 20.0974 24.0219 19.1623 24.0219 17.9864H23.5149ZM22.867 20.4353C22.4602 20.9502 21.8885 21.2151 21.1171 21.2151V21.7238C22.0209 21.7238 22.7483 21.4046 23.2643 20.7514L22.867 20.4353ZM21.1171 21.2151C20.3457 21.2151 19.774 20.9502 19.3672 20.4353L18.9699 20.7514C19.4859 21.4046 20.2133 21.7238 21.1171 21.7238V21.2151ZM19.3682 20.4365C18.9558 19.9082 18.7299 19.1047 18.7299 17.9864H18.2229C18.2229 19.1616 18.4584 20.0961 18.9689 20.7502L19.3682 20.4365ZM18.7299 17.9864C18.7299 16.8602 18.9562 16.0578 19.3672 15.5375L18.9699 15.2214C18.4581 15.8692 18.2229 16.8049 18.2229 17.9864H18.7299ZM19.3682 15.5363C19.7753 15.0146 20.3468 14.7471 21.1171 14.7471V14.2383C20.2121 14.2383 19.4846 14.5619 18.9689 15.2226L19.3682 15.5363ZM21.1171 15.0396C20.4964 15.0396 19.9923 15.2795 19.6357 15.7622L20.043 16.0652C20.2969 15.7216 20.6446 15.5484 21.1171 15.5484V15.0396ZM19.6357 15.7622C19.2844 16.2376 19.128 16.91 19.128 17.7407H19.635C19.635 16.9616 19.7839 16.4159 20.043 16.0652L19.6357 15.7622ZM19.128 17.7407V18.2321H19.635V17.7407H19.128ZM19.128 18.2321C19.128 19.0628 19.2844 19.7352 19.6357 20.2106L20.043 19.9076C19.7839 19.5569 19.635 19.0112 19.635 18.2321H19.128ZM19.6357 20.2106C19.9923 20.6933 20.4964 20.9332 21.1171 20.9332V20.4244C20.6446 20.4244 20.2969 20.2512 20.043 19.9076L19.6357 20.2106ZM21.1171 20.9332C21.7378 20.9332 22.2419 20.6933 22.5985 20.2106L22.1912 19.9076C21.9374 20.2512 21.5896 20.4244 21.1171 20.4244V20.9332ZM22.5968 20.2129C22.9566 19.7371 23.1169 19.0638 23.1169 18.2321H22.6098C22.6098 19.0103 22.4578 19.5549 22.1929 19.9054L22.5968 20.2129ZM23.1169 18.2321V17.7407H22.6098V18.2321H23.1169ZM23.1169 17.7407C23.1169 16.9091 22.9566 16.2357 22.5968 15.7599L22.1929 16.0674C22.4578 16.4178 22.6098 16.9625 22.6098 17.7407H23.1169ZM22.5985 15.7622C22.2419 15.2795 21.7378 15.0396 21.1171 15.0396V15.5484C21.5896 15.5484 21.9374 15.7216 22.1912 16.0652L22.5985 15.7622Z" fill="white"/>
<path d="M13.1587 11.3636V8.10137C13.1634 7.98741 13.1705 7.8592 13.18 7.71674C13.1895 7.56953 13.1966 7.46744 13.2013 7.41046H13.18L13.1374 7.59565C13.1279 7.63839 13.1114 7.71199 13.0877 7.81646C13.0688 7.92094 13.0475 8.0159 13.0238 8.10137L12.1294 11.3636H11.6254L10.7239 8.10137C10.6955 7.9969 10.6624 7.83546 10.6245 7.61702L10.589 7.41046H10.5606C10.5653 7.4722 10.5724 7.57665 10.5819 7.72387C10.5914 7.86632 10.5985 7.99217 10.6032 8.10137V11.3636H10.085V6.87625H10.9581L11.7461 9.81797C11.7839 9.95567 11.8171 10.1409 11.8455 10.3735C11.8786 10.6015 11.8975 10.7534 11.9023 10.8294H11.9236C11.9283 10.7534 11.9449 10.5991 11.9732 10.3664C12.0016 10.129 12.0348 9.94618 12.0726 9.81797L12.8606 6.87625H13.7337V11.3636H13.1587ZM15.593 7.83783C15.9385 7.83783 16.1988 7.92094 16.3739 8.08713C16.549 8.25332 16.6365 8.49076 16.6365 8.79941V10.7368C16.6365 10.808 16.6531 10.865 16.6862 10.9078C16.7193 10.9457 16.7595 10.9647 16.8069 10.9647H17.0269V11.3351C16.9323 11.3874 16.814 11.4135 16.672 11.4135C16.5348 11.4135 16.4165 11.3755 16.3171 11.2995C16.2224 11.2235 16.1609 11.1214 16.1325 10.9932H16.097C16.0071 11.1357 15.8888 11.2473 15.7421 11.328C15.6001 11.404 15.4392 11.442 15.2594 11.442C15.0275 11.442 14.8193 11.3731 14.6347 11.2354C14.4501 11.0977 14.3579 10.8437 14.3579 10.4733C14.3579 10.0317 14.5069 9.73013 14.8051 9.56867C15.1032 9.40248 15.5339 9.31937 16.097 9.31937V8.87776C16.097 8.69732 16.0568 8.5596 15.9763 8.46464C15.9006 8.36968 15.761 8.32218 15.5575 8.32218C15.3682 8.32218 15.231 8.37441 15.1458 8.47888C15.0654 8.58336 15.0251 8.70918 15.0251 8.85639V8.94187H14.4998C14.4951 8.91813 14.4927 8.86827 14.4927 8.79229C14.4927 8.48837 14.5921 8.25332 14.7909 8.08713C14.9944 7.92094 15.2617 7.83783 15.593 7.83783ZM16.097 9.80373C15.7042 9.80373 15.4085 9.84883 15.2097 9.93906C15.0157 10.0245 14.9187 10.1907 14.9187 10.4377C14.9187 10.6276 14.9565 10.7629 15.0322 10.8437C15.1127 10.9244 15.231 10.9647 15.3872 10.9647C15.5717 10.9647 15.735 10.8888 15.877 10.7368C16.0237 10.5849 16.097 10.3759 16.097 10.11V9.80373ZM18.6024 7.83783C18.6592 7.83783 18.7113 7.84495 18.7586 7.8592C18.8059 7.87344 18.8367 7.88293 18.8509 7.88769V8.45039H18.6734C18.4889 8.45039 18.3374 8.5145 18.2191 8.64271C18.1008 8.77092 18.0417 8.97748 18.0417 9.26239V11.3636H17.5022V7.91618H17.9068L17.9849 8.37204H18.0204C18.0677 8.2201 18.1387 8.09425 18.2333 7.99453C18.328 7.89006 18.451 7.83783 18.6024 7.83783ZM21.5198 7.91618L20.5118 9.33362L21.5766 11.3636H20.9661L20.1853 9.7966L19.8232 10.1955V11.3636H19.2837V6.62695H19.8232V9.51881L20.9306 7.91618H21.5198ZM23.1239 7.83783C23.512 7.83783 23.7983 7.96604 23.9828 8.22246C24.1674 8.47888 24.2597 8.89201 24.2597 9.46183V9.80373H22.3998C22.4046 10.2026 22.4661 10.497 22.5844 10.687C22.7075 10.8721 22.8967 10.9647 23.1523 10.9647C23.3227 10.9647 23.4599 10.8959 23.564 10.7582C23.6729 10.6157 23.7273 10.4282 23.7273 10.1955H24.2597C24.2597 10.5754 24.1556 10.8793 23.9473 11.1072C23.7439 11.3304 23.4741 11.442 23.1381 11.442C22.698 11.442 22.3691 11.2995 22.1514 11.0146C21.9384 10.7297 21.8319 10.2738 21.8319 9.64702C21.8319 9.0297 21.9384 8.57385 22.1514 8.27944C22.3643 7.98504 22.6885 7.83783 23.1239 7.83783ZM23.1239 8.32218C22.892 8.32218 22.7193 8.40529 22.6057 8.57148C22.4969 8.73294 22.4306 8.98224 22.4069 9.31937H23.6989C23.6989 8.65459 23.5072 8.32218 23.1239 8.32218ZM25.9134 8.40053H25.4591V10.6513C25.4591 10.7511 25.4849 10.8294 25.5372 10.8864C25.5891 10.9386 25.6649 10.9647 25.7643 10.9647H25.9134V11.3351C25.8708 11.3636 25.814 11.385 25.743 11.3992C25.672 11.4182 25.601 11.4277 25.5301 11.4277C25.317 11.4277 25.1608 11.3517 25.0614 11.1998C24.9668 11.0479 24.9195 10.8603 24.9195 10.6371V8.40053H24.6213V7.91618H24.9195L25.0401 6.96173H25.4591V7.91618H25.9134V8.40053Z" fill="white"/>
</g>
<defs>
<linearGradient id="paint0_linear_77_95" x1="19.7746" y1="13.9995" x2="-0.867309" y2="13.9995" gradientUnits="userSpaceOnUse">
<stop stop-color="#F25686" stop-opacity="0.31"/>
<stop offset="0.5" stop-color="#A959AA" stop-opacity="0.33"/>
<stop offset="1" stop-color="#42A3FB" stop-opacity="0.42"/>
</linearGradient>
<linearGradient id="paint1_linear_77_95" x1="60.0543" y1="14.8695" x2="15.3277" y2="14.0052" gradientUnits="userSpaceOnUse">
<stop stop-color="#F25686" stop-opacity="0.31"/>
<stop offset="0.5" stop-color="#A959AA" stop-opacity="0.33"/>
<stop offset="1" stop-color="#42A3FB" stop-opacity="0.42"/>
</linearGradient>
<linearGradient id="paint2_linear_77_95" x1="53.8733" y1="42.5982" x2="0.361356" y2="30.0871" gradientUnits="userSpaceOnUse">
<stop stop-color="#C5436B"/>
<stop offset="0.59375" stop-color="#AA24AC"/>
<stop offset="1" stop-color="#0689FF"/>
</linearGradient>
</defs>
</svg>
