<svg width="43" height="43" viewBox="0 0 43 43" fill="none" xmlns="http://www.w3.org/2000/svg">
<path d="M21.5508 39.9215C13.5905 39.9215 7.11328 33.4443 7.11328 25.484C7.11328 18.1025 18.9205 3.17151 21.5508 3.17151C24.181 3.17151 35.9883 18.1025 35.9883 25.484C35.9883 33.4443 29.5111 39.9215 21.5508 39.9215ZM21.5613 5.99207C19.0203 8.09207 9.73828 19.6158 9.73828 25.484C9.73828 31.9966 15.0382 37.2965 21.5508 37.2965C28.0634 37.2965 33.3633 31.9966 33.3633 25.484C33.3633 19.5108 24.0944 8.05007 21.5613 5.99207Z" fill="#22567B"/>
<path d="M21.5508 34.6715C16.4845 34.6715 12.3633 30.5503 12.3633 25.484C12.3633 24.7595 12.9513 24.1715 13.6758 24.1715C14.4003 24.1715 14.9883 24.7595 14.9883 25.484C14.9883 29.1026 17.9322 32.0465 21.5508 32.0465C22.2753 32.0465 22.8633 32.6345 22.8633 33.359C22.8633 34.0835 22.2753 34.6715 21.5508 34.6715Z" fill="#22567B"/>
</svg>
