<svg width="56" height="56" viewBox="0 0 56 56" fill="none" xmlns="http://www.w3.org/2000/svg">
<path fill-rule="evenodd" clip-rule="evenodd" d="M27.8027 5.19214C15.3073 5.19214 5.17773 15.3217 5.17773 27.8171C5.17773 40.3126 15.3073 50.4421 27.8027 50.4421C40.2982 50.4421 50.4277 40.3126 50.4277 27.8171C50.4277 15.3217 40.2982 5.19214 27.8027 5.19214ZM0.177734 27.8171C0.177734 12.5603 12.5459 0.192139 27.8027 0.192139C43.0596 0.192139 55.4277 12.5603 55.4277 27.8171C55.4277 43.074 43.0596 55.4421 27.8027 55.4421C12.5459 55.4421 0.177734 43.074 0.177734 27.8171ZM27.8027 15.4073C29.1834 15.4073 30.3027 16.5266 30.3027 17.9073V29.0739C30.3027 30.4546 29.1834 31.5739 27.8027 31.5739C26.422 31.5739 25.3027 30.4546 25.3027 29.0739V17.9073C25.3027 16.5266 26.422 15.4073 27.8027 15.4073ZM25.1637 37.4489C25.1637 36.0682 26.283 34.9489 27.6637 34.9489H27.9418C29.3225 34.9489 30.4418 36.0682 30.4418 37.4489V37.7281C30.4418 38.3928 30.177 39.0302 29.7061 39.4993C29.2351 39.9685 28.5967 40.2307 27.932 40.2281L27.6539 40.227C26.277 40.2216 25.1637 39.1039 25.1637 37.727V37.4489Z" fill="#53A2DB"/>
</svg>
