<svg width="17" height="13" viewBox="0 0 17 13" fill="none" xmlns="http://www.w3.org/2000/svg">
<path fill-rule="evenodd" clip-rule="evenodd" d="M0.556396 1.40332C0.556396 0.851036 1.00411 0.40332 1.5564 0.40332H15.5564C16.1087 0.40332 16.5564 0.851036 16.5564 1.40332C16.5564 1.95561 16.1087 2.40332 15.5564 2.40332H1.5564C1.00411 2.40332 0.556396 1.95561 0.556396 1.40332ZM0.556396 6.40332C0.556396 5.85104 1.00411 5.40332 1.5564 5.40332H15.5564C16.1087 5.40332 16.5564 5.85104 16.5564 6.40332C16.5564 6.95561 16.1087 7.40332 15.5564 7.40332H1.5564C1.00411 7.40332 0.556396 6.95561 0.556396 6.40332ZM7.5564 11.4033C7.5564 10.851 8.00411 10.4033 8.5564 10.4033H15.5564C16.1087 10.4033 16.5564 10.851 16.5564 11.4033C16.5564 11.9556 16.1087 12.4033 15.5564 12.4033H8.5564C8.00411 12.4033 7.5564 11.9556 7.5564 11.4033Z" fill="#22567B"/>
</svg>
