<svg style="display: none;" aria-hidden="true" xmlns="http://www.w3.org/2000/svg" xmlns:xlink="http://www.w3.org/1999/xlink"><symbol viewBox="0 0 56 56" id="accepted"><path clip-rule="evenodd" d="M9.85 35.48a1.1 1.1 0 0 1 .612 1.43L5.77 48.64l4.196-2.098a1.1 1.1 0 0 1 1.532.625l1.498 4.34 4.667-11.6a1.1 1.1 0 1 1 2.041.822L13.938 55.06a1.1 1.1 0 0 1-2.06-.052l-2.05-5.937-5.662 2.831a1.1 1.1 0 0 1-1.513-1.392l5.766-14.416a1.1 1.1 0 0 1 1.43-.613Z"/><path clip-rule="evenodd" d="M32.517 35.483a1.1 1.1 0 0 1 1.433.606l5.851 14.416a1.1 1.1 0 0 1-1.506 1.4l-5.75-2.84-2.051 5.944a1.1 1.1 0 0 1-2.06.051L22.666 40.73a1.1 1.1 0 1 1 2.041-.821l4.667 11.6 1.498-4.34a1.1 1.1 0 0 1 1.527-.628l4.275 2.11-4.763-11.734a1.1 1.1 0 0 1 .605-1.433Z"/><path clip-rule="evenodd" d="M21.226 2.75C11.11 2.75 2.907 10.95 2.907 21.069c0 10.117 8.202 18.32 18.32 18.32 10.117 0 18.319-8.203 18.319-18.32s-8.202-18.32-18.32-18.32ZM.707 21.069C.707 9.736 9.894.549 21.227.549c11.332 0 20.519 9.187 20.519 20.52 0 11.332-9.187 20.52-20.52 20.52C9.894 41.588.707 32.4.707 21.068Z"/><path clip-rule="evenodd" d="M23.966 13.893a.19.19 0 0 0-.05.176 1.1 1.1 0 0 1 .022.215v.848c0 .022 0 .043-.002.065-.102 1.743-.922 3.3-2.262 4.345-.986.862-2.26 1.27-3.5 1.27h-.509a1.1 1.1 0 1 1 0-2.2h.51c.782 0 1.53-.263 2.067-.74l.06-.05a3.697 3.697 0 0 0 1.436-2.724v-.72c-.237-1.565 1.052-2.805 2.542-2.805.838 0 1.734.411 2.215 1.213l.007.011c.394.676.735 1.653.657 2.942-.052.851-.284 1.806-.768 2.872h2.722c1.185 0 2.372.905 2.372 2.288 0 .03 0 .06-.003.089l-.59 7.255c-.03 1.353-1.202 2.236-2.372 2.236h-6.021c-.8 0-1.548-.228-2.214-.513a1.036 1.036 0 0 1-.059-.027l-.678-.34a1.087 1.087 0 0 1-.05-.026s-.048-.019-.171-.047a6.656 6.656 0 0 0-.552-.097 27 27 0 0 0-.614-.076l-.027-.003c-.195-.022-.405-.047-.565-.073a1.1 1.1 0 1 1 .362-2.17c.094.015.243.033.459.058l.031.004c.196.023.428.05.658.081.24.034.503.076.744.132.2.047.485.123.736.264l.621.31c.509.215.939.323 1.319.323h6.02c.067 0 .121-.026.151-.053a.081.081 0 0 0 .02-.025 1.109 1.109 0 0 1 .005-.099l.588-7.215a.092.092 0 0 0-.02-.022.228.228 0 0 0-.15-.053h-4.579a1.1 1.1 0 0 1-.926-1.694c.984-1.535 1.305-2.692 1.355-3.512.048-.802-.158-1.35-.356-1.691-.031-.048-.152-.142-.327-.142a.41.41 0 0 0-.314.12Z"/><path clip-rule="evenodd" d="M13.253 19.54v8.823h3.227V19.54h-3.227Zm-1.644-1.645A1.946 1.946 0 0 1 13 17.338h3.731c.505 0 1.01.173 1.393.556.383.382.555.888.555 1.392v9.256a1.78 1.78 0 0 1-.512 1.465 1.919 1.919 0 0 1-1.35.555H13c-.504 0-1.01-.173-1.392-.555a1.946 1.946 0 0 1-.556-1.393v-9.328c0-.504.173-1.01.556-1.392Z"/><path clip-rule="evenodd" d="M47.51 31.412a6.108 6.108 0 1 0 0 12.216 6.108 6.108 0 0 0 0-12.216ZM39.2 37.52a8.308 8.308 0 1 1 16.616 0 8.308 8.308 0 0 1-16.616 0Z"/><path clip-rule="evenodd" d="M51.425 34.453a1.1 1.1 0 0 1 0 1.555l-4.58 4.58a1.1 1.1 0 0 1-1.575-.02L43.66 38.87a1.1 1.1 0 1 1 1.595-1.515l.834.878 3.781-3.781a1.1 1.1 0 0 1 1.556 0Z"/></symbol><symbol viewBox="0 0 19 21" id="file"><path clip-rule="evenodd" d="M15.135 3.933a4.25 4.25 0 0 0-6.01 0L2.23 10.827A1 1 0 0 1 .816 9.413L7.711 2.52a6.25 6.25 0 1 1 8.838 8.839l-7.955 7.955a4.5 4.5 0 1 1-6.364-6.364l7.955-7.955a2.75 2.75 0 0 1 3.89 3.889L7.18 15.777a1 1 0 1 1-1.414-1.414l6.894-6.894a.75.75 0 1 0-1.06-1.06l-7.955 7.954A2.5 2.5 0 0 0 7.18 17.9l7.955-7.955a4.25 4.25 0 0 0 0-6.011Z"/></symbol><symbol viewBox="0 0 54 54" id="formulas"><path d="M48.647.65a4.75 4.75 0 0 0-4.744 4.744c0 1.028.33 1.98.887 2.758l-3.923 3.923 1.098 1.1 3.923-3.924c.778.558 1.73.888 2.759.888a4.75 4.75 0 0 0 4.745-4.745A4.75 4.75 0 0 0 48.647.65Zm0 7.935a3.194 3.194 0 0 1-3.19-3.19c0-1.76 1.43-3.191 3.19-3.191s3.19 1.43 3.19 3.19-1.43 3.19-3.19 3.19Z"/><path clip-rule="evenodd" d="M43.602 5.394A5.05 5.05 0 0 1 48.648.35a5.05 5.05 0 0 1 5.044 5.044 5.05 5.05 0 0 1-5.044 5.045 5.013 5.013 0 0 1-2.722-.8l-3.96 3.96-1.523-1.524 3.96-3.96a5.013 5.013 0 0 1-.8-2.72ZM48.648.95a4.45 4.45 0 0 0-4.444 4.444c0 .963.308 1.854.83 2.583l.149.207-3.891 3.891.674.675 3.891-3.892.207.149c.73.523 1.62.832 2.584.832a4.45 4.45 0 0 0 4.445-4.445A4.45 4.45 0 0 0 48.647.95Zm0 1.554a2.894 2.894 0 0 0-2.89 2.89 2.894 2.894 0 0 0 2.89 2.89 2.894 2.894 0 0 0 2.89-2.89 2.894 2.894 0 0 0-2.89-2.89Zm-3.49 2.89a3.494 3.494 0 0 1 3.49-3.49 3.494 3.494 0 0 1 3.49 3.49 3.494 3.494 0 0 1-3.49 3.49 3.494 3.494 0 0 1-3.49-3.49Z"/><path d="m20.12 44.911 1.488-3.47-1.428-.612-1.487 3.468a4.75 4.75 0 0 0-5.874 4.608 4.75 4.75 0 0 0 4.745 4.745 4.75 4.75 0 0 0 4.745-4.745 4.744 4.744 0 0 0-2.188-3.994Zm-2.556 7.185a3.194 3.194 0 0 1-3.19-3.191c0-1.76 1.43-3.19 3.19-3.19s3.19 1.43 3.19 3.19-1.43 3.19-3.19 3.19Z"/><path clip-rule="evenodd" d="m20.022 40.435 1.98.849-1.508 3.518a5.04 5.04 0 0 1 2.115 4.103m-2.587-8.47-.118.276Zm.315.788L18.87 44.65l-.247-.06a4.45 4.45 0 0 0-5.502 4.316 4.45 4.45 0 0 0 4.444 4.444 4.45 4.45 0 0 0 4.445-4.444c0-1.568-.818-2.95-2.05-3.741l-.214-.137 1.47-3.428-.878-.376Zm-.433-.512-1.389 3.24Zm-1.389 3.24a5.05 5.05 0 0 0-5.996 4.954 5.05 5.05 0 0 0 5.045 5.045 5.05 5.05 0 0 0 5.045-5.045m-5.045-2.89a2.894 2.894 0 0 0-2.89 2.89 2.894 2.894 0 0 0 2.89 2.89 2.894 2.894 0 0 0 2.89-2.89 2.894 2.894 0 0 0-2.89-2.89Zm-3.49 2.89a3.494 3.494 0 0 1 3.49-3.49 3.494 3.494 0 0 1 3.49 3.49 3.494 3.494 0 0 1-3.49 3.49 3.494 3.494 0 0 1-3.49-3.49Z"/><path d="M42.426 36.552c-1.412 0-2.713.48-3.752 1.286l-4.71-4.71a9.229 9.229 0 0 0 2.193-5.98 9.229 9.229 0 0 0-2.192-5.979l6.746-6.745-1.1-1.1-6.744 6.746a9.23 9.23 0 0 0-5.98-2.192 9.23 9.23 0 0 0-6.045 2.247l-6.301-6.186a6.108 6.108 0 0 0 1.389-3.883 6.143 6.143 0 0 0-6.137-6.137 6.143 6.143 0 0 0-6.136 6.137 6.143 6.143 0 0 0 6.136 6.136c1.353 0 2.603-.44 3.618-1.184l6.342 6.226a9.263 9.263 0 0 0-1.895 8.023l-5.657 1.782a6.145 6.145 0 0 0-5.678-3.81 6.144 6.144 0 0 0-6.136 6.136A6.143 6.143 0 0 0 6.524 39.5a6.143 6.143 0 0 0 6.08-6.96l5.735-1.806a9.328 9.328 0 0 0 4.196 4.596l-1.718 4.01 1.428.611 1.717-4.006c.92.306 1.903.473 2.925.473a9.229 9.229 0 0 0 5.98-2.192l4.709 4.71a6.103 6.103 0 0 0-1.286 3.752 6.143 6.143 0 0 0 6.137 6.136 6.143 6.143 0 0 0 6.136-6.137 6.144 6.144 0 0 0-6.137-6.136ZM6.524 37.947a4.588 4.588 0 0 1-4.583-4.582 4.588 4.588 0 0 1 4.583-4.583 4.588 4.588 0 0 1 4.582 4.583 4.588 4.588 0 0 1-4.582 4.582ZM5.21 10.056a4.588 4.588 0 0 1 4.582-4.583 4.588 4.588 0 0 1 4.583 4.583 4.588 4.588 0 0 1-4.583 4.582 4.588 4.588 0 0 1-4.582-4.582Zm21.676 24.809c-4.255 0-7.717-3.462-7.717-7.717 0-4.255 3.462-7.716 7.717-7.716 4.255 0 7.716 3.461 7.716 7.716 0 4.255-3.461 7.717-7.716 7.717Zm15.54 12.406a4.588 4.588 0 0 1-4.583-4.582 4.588 4.588 0 0 1 4.582-4.583 4.588 4.588 0 0 1 4.583 4.583 4.588 4.588 0 0 1-4.583 4.582Z"/><path clip-rule="evenodd" d="M3.357 10.056a6.443 6.443 0 0 1 6.436-6.437 6.443 6.443 0 0 1 6.437 6.437c0 1.445-.48 2.781-1.288 3.857l5.916 5.808a9.527 9.527 0 0 1 6.029-2.143c2.251 0 4.324.782 5.96 2.088l6.765-6.766 1.523 1.524-6.765 6.765a9.525 9.525 0 0 1 2.087 5.96 9.525 9.525 0 0 1-2.088 5.96l4.334 4.333a6.4 6.4 0 0 1 3.723-1.19 6.443 6.443 0 0 1 6.437 6.436 6.443 6.443 0 0 1-6.436 6.437 6.443 6.443 0 0 1-6.437-6.437 6.4 6.4 0 0 1 1.19-3.723l-4.334-4.334a9.525 9.525 0 0 1-5.96 2.088 9.538 9.538 0 0 1-2.755-.405l-1.729 4.032-1.98-.848 1.73-4.035a9.632 9.632 0 0 1-3.98-4.36l-5.242 1.65a6.443 6.443 0 0 1-6.406 7.048 6.443 6.443 0 0 1-6.437-6.436 6.443 6.443 0 0 1 6.436-6.437 6.443 6.443 0 0 1 5.845 3.744l5.14-1.618a9.573 9.573 0 0 1-.192-1.906c0-2.22.76-4.265 2.033-5.89l-5.97-5.861a6.399 6.399 0 0 1-3.586 1.095 6.443 6.443 0 0 1-6.436-6.436Zm6.436-5.837a5.843 5.843 0 0 0-5.836 5.837 5.843 5.843 0 0 0 5.836 5.836 5.802 5.802 0 0 0 3.441-1.126l.206-.15 6.72 6.598-.176.212a8.966 8.966 0 0 0-1.834 7.764l.064.27-6.186 1.947-.105-.254a5.845 5.845 0 0 0-5.4-3.625 5.843 5.843 0 0 0-5.836 5.837A5.843 5.843 0 0 0 6.524 39.2a5.843 5.843 0 0 0 5.782-6.62l-.034-.25 6.237-1.964.106.252a9.029 9.029 0 0 0 4.061 4.448l.243.13-1.709 3.986.877.376 1.708-3.985.262.087c.89.297 1.841.458 2.83.458a8.93 8.93 0 0 0 5.785-2.121l.211-.179 5.092 5.092-.162.21a5.804 5.804 0 0 0-1.223 3.567 5.843 5.843 0 0 0 5.837 5.837 5.843 5.843 0 0 0 5.836-5.837 5.843 5.843 0 0 0-5.837-5.836c-1.343 0-2.58.457-3.568 1.223l-.209.162-5.092-5.092.179-.21a8.929 8.929 0 0 0 2.121-5.787 8.93 8.93 0 0 0-2.12-5.785l-.179-.21 6.728-6.73-.674-.674-6.729 6.729-.21-.179a8.93 8.93 0 0 0-5.786-2.121 8.93 8.93 0 0 0-5.849 2.175l-.209.18-6.694-6.572.174-.212a5.808 5.808 0 0 0 1.32-3.694A5.843 5.843 0 0 0 9.794 4.22Zm0 1.554a4.288 4.288 0 0 0-4.282 4.283 4.288 4.288 0 0 0 4.282 4.282 4.288 4.288 0 0 0 4.283-4.282 4.288 4.288 0 0 0-4.283-4.283Zm-4.882 4.283a4.888 4.888 0 0 1 4.882-4.883 4.888 4.888 0 0 1 4.883 4.883 4.888 4.888 0 0 1-4.883 4.882 4.888 4.888 0 0 1-4.882-4.882Zm21.976 9.676c-4.09 0-7.417 3.327-7.417 7.416 0 4.09 3.328 7.417 7.417 7.417 4.09 0 7.416-3.327 7.416-7.417 0-4.089-3.327-7.416-7.416-7.416Zm-8.017 7.416c0-4.42 3.596-8.016 8.017-8.016 4.42 0 8.016 3.596 8.016 8.016s-3.595 8.017-8.016 8.017c-4.42 0-8.017-3.596-8.017-8.017ZM6.524 29.082a4.288 4.288 0 0 0-4.283 4.283 4.288 4.288 0 0 0 4.283 4.282 4.288 4.288 0 0 0 4.282-4.282 4.288 4.288 0 0 0-4.282-4.283ZM1.64 33.365a4.888 4.888 0 0 1 4.883-4.883 4.888 4.888 0 0 1 4.882 4.883 4.888 4.888 0 0 1-4.882 4.882 4.888 4.888 0 0 1-4.883-4.882Zm40.785 5.041a4.288 4.288 0 0 0-4.282 4.282 4.288 4.288 0 0 0 4.282 4.283 4.288 4.288 0 0 0 4.283-4.282 4.288 4.288 0 0 0-4.283-4.283Zm-4.882 4.282a4.888 4.888 0 0 1 4.882-4.882 4.888 4.888 0 0 1 4.883 4.883 4.888 4.888 0 0 1-4.883 4.882 4.888 4.888 0 0 1-4.882-4.883Z"/><path d="M22.231 22.487h1.554v1.554h-1.554v-1.554Z"/><path clip-rule="evenodd" d="M21.931 22.187h2.154v2.154h-2.154v-2.154Zm.6.6v.954h.954v-.954h-.954Z"/><path d="M25.368 22.487h1.554v1.554h-1.554v-1.554Z"/><path clip-rule="evenodd" d="M25.068 22.187h2.153v2.154h-2.153v-2.154Zm.6.6v.954h.954v-.954h-.954Z"/><path d="M4.195 31.034h1.554v1.554H4.195v-1.554Z"/><path clip-rule="evenodd" d="M3.895 30.734h2.154v2.154H3.895v-2.154Zm.6.6v.954h.954v-.954h-.954Z"/><path d="M40.095 40.358h1.554v1.554h-1.554v-1.554Z"/><path clip-rule="evenodd" d="M39.795 40.058h2.154v2.154h-2.154v-2.154Zm.6.6v.954h.954v-.954h-.954Z"/></symbol><symbol viewBox="0 0 54 54" id="ingridients"><path d="M2.676 19.71c1.373-.055 1.372-2.014 0-2.068-1.373.055-1.37 2.014 0 2.068Z"/><path d="M24.374 37.414v-4.653c-.185-4.46-6.539-4.457-6.722 0v4.653c.185 4.46 6.538 4.457 6.722 0Zm-4.654 0v-4.653c.072-1.716 2.515-1.715 2.586 0v4.653c-.072 1.716-2.515 1.715-2.586 0Z"/><path d="M29.801 40.776a3.365 3.365 0 0 0 3.361-3.362v-4.653c-.185-4.46-6.538-4.457-6.722 0v4.653a3.365 3.365 0 0 0 3.361 3.361ZM28.51 32.76c.07-1.716 2.514-1.715 2.585 0v4.653c-.071 1.716-2.515 1.715-2.585 0v-4.653Z"/><path d="M14.548 40.776c.572 0 1.035-.463 1.035-1.035v-9.307c0-.571-.463-1.034-1.035-1.034H12.48c-1.372.054-1.371 2.014 0 2.068h1.034v8.274c0 .57.463 1.034 1.034 1.034Z"/><path d="M35.803 40.667c.5.253 1.132.053 1.388-.463l4.654-9.307a1.034 1.034 0 1 0-1.85-.925l-4.654 9.307a1.034 1.034 0 0 0 .462 1.388Z"/><path d="M36.266 31.468c1.372-.055 1.371-2.015 0-2.069-1.373.055-1.371 2.015 0 2.069Z"/><path d="M40.92 38.707c-.572 0-1.035.463-1.035 1.034.055 1.372 2.015 1.372 2.07 0 0-.571-.464-1.034-1.035-1.034Z"/><path d="M49.856 14.224c1.884-3.76 2.237-8.174 1.072-12.25a1.034 1.034 0 0 0-.71-.711 17.266 17.266 0 0 0-8.745-.204c-1.51.363-2.952.934-4.285 1.693C30.614-.125 22.785-.124 16.213 2.75a16.428 16.428 0 0 0-4.285-1.692 17.266 17.266 0 0 0-8.744.204 1.034 1.034 0 0 0-.711.71C.784 7.746 2.326 14.26 6.609 18.478a16.37 16.37 0 0 0 7.759 4.339 17.24 17.24 0 0 0 8.15-.046l3.452 3.451a1.034 1.034 0 0 0 1.462 0l3.451-3.45c5.592 1.433 11.853-.166 15.91-4.294.671-.67 1.28-1.396 1.82-2.167C59.175 38.26 34.819 60.44 13.96 47.887a1.035 1.035 0 0 0-.809-.117l-.401.108-7.77 2.084-.013.003a.935.935 0 0 1-.92-.241.922.922 0 0 1-.248-.91c.732-2.735 1.465-5.467 2.198-8.199a1.034 1.034 0 0 0-.117-.809C2.879 34.944 1.699 29.012 2.576 23.35a1.034 1.034 0 1 0-2.045-.312C-.397 29.029.8 35.305 3.886 40.504L1.8 48.279a2.975 2.975 0 0 0 .795 2.918 2.981 2.981 0 0 0 2.926.761l7.742-2.076c23.467 13.36 49.336-11.87 36.593-35.658Zm-41.784 2.79c-3.58-3.578-4.993-8.862-3.758-13.911 5.049-1.235 10.333.179 13.911 3.758 3.292 3.292 4.752 8.027 4.004 12.694l-2.92-2.92V13.08c-.056-1.372-2.015-1.37-2.07 0v1.485l-3.619-3.62V7.394c-.054-1.372-2.014-1.37-2.068 0v1.485L9.296 6.622c-1.01-.932-2.394.455-1.463 1.463l2.256 2.256H8.604c-1.372.055-1.37 2.014 0 2.068h3.554l3.62 3.62h-1.486c-1.372.055-1.37 2.014 0 2.068h3.554l2.92 2.921c-4.667.748-9.402-.712-12.694-4.004Zm18.63 7.014-2.72-2.72c1.432-5.617-.165-11.842-4.294-15.91a16.315 16.315 0 0 0-1.402-1.249c5.33-1.983 11.5-1.983 16.83 0-.49.388-.958.805-1.402 1.249-4.129 4.069-5.726 10.293-4.293 15.91l-2.72 2.72Zm18.629-7.014c-3.293 3.293-8.028 4.753-12.695 4.004l2.92-2.92h3.554c1.372-.055 1.37-2.015 0-2.07h-1.485l3.62-3.619h3.553c1.372-.054 1.37-2.014 0-2.068h-1.485l2.256-2.256c.932-1.01-.455-2.394-1.462-1.463L41.85 8.878V7.393c-.054-1.372-2.014-1.37-2.068 0v3.554l-3.62 3.62V13.08c-.054-1.372-2.014-1.37-2.068 0v3.554l-2.92 2.92c-.75-4.667.71-9.402 4.003-12.694 3.578-3.58 8.862-4.993 13.911-3.758 1.235 5.049-.179 10.333-3.757 13.911Z"/></symbol><symbol viewBox="0 0 23 22" id="instruction"><g clip-path="url(#eclip0_114_1469)"><path d="M7.294 13.71c0-.349-.254-.557-.701-.557a1.62 1.62 0 0 0-.371.034v1.119c.076.016.17.022.3.022.477 0 .772-.23.772-.618Z"/><path d="M10.063 13.165c-.2 0-.33.016-.407.033v2.479c.077.017.2.017.312.017.813.005 1.343-.422 1.343-1.327.006-.786-.477-1.202-1.248-1.202Z"/><path d="M15.207.199H6.371c-1.29 0-2.341 1.004-2.341 2.235v8.265H3.8c-.521 0-.944.403-.944.9v5.463c0 .497.423.9.944.9h.229v1.002c0 1.233 1.05 2.235 2.341 2.235h12.057c1.29 0 2.34-1.002 2.34-2.235V5.489l-5.56-5.29ZM5.333 12.585a7.742 7.742 0 0 1 1.212-.078c.554 0 .948.1 1.213.303.253.191.424.506.424.877 0 .37-.13.686-.365.9-.306.275-.76.398-1.29.398a2.44 2.44 0 0 1-.305-.016v1.354h-.89v-3.738Zm13.095 7.245H6.37c-.5 0-.907-.388-.907-.866v-1.002h11.24c.52 0 .943-.403.943-.9V11.6c0-.498-.422-.901-.944-.901H5.464V2.434c0-.476.407-.865.907-.865l8.3-.008v2.928c0 .856.727 1.55 1.624 1.55l3.005-.008.034 12.933c0 .478-.407.866-.906.866Zm-9.673-3.524v-3.72c.33-.05.76-.079 1.213-.079.754 0 1.243.13 1.626.404.412.293.67.759.67 1.428 0 .725-.276 1.226-.659 1.534-.418.332-1.054.49-1.83.49-.466 0-.796-.029-1.02-.057Zm6.426-2.203v.697h-1.425v1.523h-.9v-3.788h2.425v.703h-1.525v.865h1.425Z"/></g><defs><clipPath id="eclip0_114_1469"><rect width="22" height="21" transform="translate(0.812988 0.198975)"/></clipPath></defs></symbol><symbol viewBox="0 0 16 13" id="left-arrow"><path clip-rule="evenodd" d="M7.504.897a1 1 0 0 1 0 1.414l-3.46 3.46h10.502a1 1 0 1 1 0 2H4.044l3.46 3.46a1 1 0 1 1-1.415 1.413L.923 7.478a1 1 0 0 1 0-1.414L6.089.897a1 1 0 0 1 1.415 0Z"/></symbol><symbol viewBox="0 0 25 25" id="location"><path clip-rule="evenodd" d="M12.362 4.888a1.002 1.002 0 0 0-.568 0c-.05.015-.14.052-.331.195-.201.15-.448.365-.832.701L5.83 9.985c-.44.385-.523.468-.579.55a.999.999 0 0 0-.14.309c-.025.095-.033.21-.033.797v5.548c0 .48 0 .79.017 1.026.016.228.042.315.06.357a1 1 0 0 0 .54.541c.042.018.129.044.357.06.237.016.546.016 1.026.016s.79 0 1.027-.016c.228-.016.315-.042.356-.06a1 1 0 0 0 .541-.541c.017-.042.044-.129.06-.357.016-.237.016-.546.016-1.026v-1a3 3 0 0 1 6 0v1c0 .48 0 .79.017 1.026.015.228.042.315.06.357a1 1 0 0 0 .54.541c.042.018.129.044.357.06.237.016.546.016 1.026.016s.79 0 1.027-.016c.228-.016.315-.042.356-.06a1 1 0 0 0 .541-.541c.017-.042.044-.129.06-.357.016-.237.016-.546.016-1.026v-5.548c0-.585-.008-.702-.033-.797a.998.998 0 0 0-.14-.309c-.055-.082-.138-.165-.578-.55l-4.8-4.2a15.864 15.864 0 0 0-.833-.702c-.19-.143-.28-.18-.332-.195ZM11.227 2.97a3.002 3.002 0 0 1 1.702 0c.369.109.676.297.963.511.27.203.576.47.927.777l4.825 4.222.064.056c.337.295.633.553.852.876.192.283.334.596.42.926.099.378.099.77.098 1.217v5.665c0 .439 0 .818-.021 1.132a3.07 3.07 0 0 1-.207.985 3 3 0 0 1-1.623 1.624 3.071 3.071 0 0 1-.986.207c-.314.021-.692.021-1.131.021h-.064c-.439 0-.817 0-1.13-.02a3.07 3.07 0 0 1-.986-.208 3 3 0 0 1-1.623-1.624 3.069 3.069 0 0 1-.207-.986c-.022-.313-.022-.691-.022-1.13v-1.032a1 1 0 0 0-2 0v1.03c0 .44 0 .819-.021 1.133-.023.33-.072.66-.207.985a3 3 0 0 1-1.623 1.624 3.071 3.071 0 0 1-.986.207c-.314.021-.692.021-1.131.021h-.064c-.439 0-.817 0-1.13-.02a3.07 3.07 0 0 1-.986-.208 3 3 0 0 1-1.623-1.624 3.068 3.068 0 0 1-.207-.986 17.806 17.806 0 0 1-.022-1.13V11.55c0-.444 0-.836.098-1.212.087-.332.23-.645.42-.926.22-.323.515-.581.853-.876l.064-.056L9.314 4.28l.027-.024c.35-.306.654-.572.924-.774.287-.214.593-.402.962-.511Z"/></symbol><symbol viewBox="0 0 24 25" id="map"><g id="hNavigation / Map_Pin"><path id="hVector (Stroke)" clip-rule="evenodd" d="M12 4.368a6.04 6.04 0 0 0-4.247 1.739A5.884 5.884 0 0 0 6 10.29c0 2.136.938 4.149 2.169 5.86 1.226 1.705 2.685 3.03 3.588 3.77a12.062 12.062 0 0 0 .243.192 11.124 11.124 0 0 0 .243-.193c.903-.739 2.362-2.064 3.588-3.768C17.062 14.439 18 12.426 18 10.29c0-1.567-.63-3.073-1.753-4.185A6.04 6.04 0 0 0 12 4.368Zm-5.653.317A8.04 8.04 0 0 1 12 2.368a8.04 8.04 0 0 1 5.653 2.316A7.885 7.885 0 0 1 20 10.291c0 2.716-1.185 5.136-2.545 7.027-1.366 1.9-2.968 3.35-3.944 4.149l-.05.041c-.222.183-.51.42-.919.536-.333.093-.75.093-1.084 0-.409-.116-.698-.354-.918-.536l-.05-.041c-.977-.8-2.58-2.25-3.945-4.149C5.185 15.426 4 13.007 4 10.29c0-2.104.846-4.12 2.347-5.605ZM12 8.368a1 1 0 1 0 0 2 1 1 0 0 0 0-2Zm-3 1a3 3 0 1 1 6 0 3 3 0 0 1-6 0Z"/></g></symbol><symbol viewBox="0 0 24 25" id="phone"><g id="iCommunication / Phone"><path id="iVector (Stroke)" clip-rule="evenodd" d="M4.895 4.364c-.495 0-.895.4-.895.894 0 8.343 6.763 15.106 15.105 15.106.494 0 .895-.4.895-.895v-2.751a1 1 0 0 0-.628-.929l-2.636-1.054a1 1 0 0 0-1.012.16l-.68.567a3.001 3.001 0 0 1-4.043-.182l-1.916-1.918a3 3 0 0 1-.184-4.042l.567-.68a1 1 0 0 0 .161-1.012L8.574 4.993a1 1 0 0 0-.928-.63H4.895ZM2 5.258a2.895 2.895 0 0 1 2.895-2.894h2.75a3 3 0 0 1 2.786 1.886l1.055 2.635a3 3 0 0 1-.482 3.035l-.567.68a1 1 0 0 0 .062 1.348l1.916 1.917c.366.366.95.393 1.348.061l.68-.567a3 3 0 0 1 3.035-.48l2.637 1.053A3 3 0 0 1 22 16.718L22 19.469a2.895 2.895 0 0 1-2.895 2.895C9.659 22.364 2 14.705 2 5.258Z"/></g></symbol><symbol viewBox="0 0 16 13" id="right-arrow"><path clip-rule="evenodd" d="M8.607.658a1 1 0 0 0 0 1.415l3.46 3.46H1.563a1 1 0 0 0 0 2h10.502l-3.46 3.459a1 1 0 1 0 1.415 1.414l5.167-5.167a1 1 0 0 0 0-1.414L10.02.658a1 1 0 0 0-1.414 0Z"/></symbol><symbol viewBox="0 0 19 19" id="star"><path d="M8.895 1.09c.317-.64.833-.64 1.15 0l1.971 3.996c.317.64 1.153 1.247 1.859 1.35l4.41.64c.706.103.866.595.355 1.093l-3.19 3.11c-.512.499-.83 1.483-.71 2.185l.752 4.392c.12.703-.297 1.007-.929.675l-3.943-2.074c-.633-.332-1.667-.332-2.298 0l-3.945 2.074c-.631.332-1.05.029-.93-.675l.754-4.392c.12-.702-.2-1.686-.71-2.184L.3 8.17c-.512-.499-.352-.99.355-1.094l4.41-.64c.706-.103 1.542-.71 1.859-1.35l1.971-3.997Z"/></symbol><symbol viewBox="0 0 56 54" id="trust"><path d="M14.813 31.103a.797.797 0 0 0 .922-.647c.853-4.857.177-9.104-1.954-12.284a.796.796 0 1 0-1.324.887c1.899 2.832 2.49 6.677 1.71 11.122a.796.796 0 0 0 .646.922Zm33.04-29.706c-3.127-1.996-7.336.236-7.336 4.03 0 3.814 3.954 6.268 6.311 7.39.651.311 1.398.311 2.05 0 2.357-1.122 6.31-3.576 6.31-7.39 0-3.787-4.2-6.03-7.335-4.03Zm.34 9.983a.786.786 0 0 1-.68 0c-1.624-.774-5.403-2.904-5.403-5.954 0-2.622 3.002-4.1 5.08-2.552.397.296.93.295 1.326 0 2.078-1.549 5.08-.07 5.08 2.552 0 3.05-3.779 5.18-5.403 5.954Zm-.242 13.27a4.095 4.095 0 0 0-4.09 4.09v1.154a65.533 65.533 0 0 0-2.75-3.08c1.833-2.935 2.093-5.253.77-6.897-.713-.886-1.761-1.409-2.953-1.473l1.003-1.003a4.635 4.635 0 0 0-3.15-7.912 4.645 4.645 0 0 0-.704-5.653 4.642 4.642 0 0 0-6.558 0l-.644.643c-.068-1.67-1.12-3.122-2.625-3.585a.796.796 0 1 0-.469 1.522c.232.072.44.183.635.34 1.242.996 1.102 3.08-.064 4.246l-5.982 5.982a.796.796 0 1 0 1.126 1.127l9.149-9.149a3.047 3.047 0 0 1 4.305 0 3.047 3.047 0 0 1 0 4.305l-1.577 1.576-7.448 7.45a.797.797 0 0 0 1.126 1.126L34.5 12.01a3.047 3.047 0 0 1 4.304 0 3.042 3.042 0 0 1 0 4.305l-5.278 5.278c-1.826-.202-3.156 1.041-3.411 2.642-.125-.088-1.034-1.322-2.877-1.322-2.77 0-4.599 2.916-3.364 5.417a3.734 3.734 0 0 0-2.257 1.077 3.757 3.757 0 0 0 0 5.307l.501.501c-1.652.271-2.953 1.709-2.644 3.759.066.438.202.904.407 1.396-4.05.111-7.996-1.39-10.737-4.13-6.753-6.755-6.742-12.52-6.73-18.624.002-.772.001-.491-.005-7.767a3.486 3.486 0 0 1 3.482-3.482 3.486 3.486 0 0 1 3.483 3.482v4.392c0 .75.948 1.084 1.418.498 4.954-6.184 8.985-10.11 11.982-11.667a.796.796 0 1 0-.734-1.413c-2.894 1.504-6.614 4.98-11.073 10.345V9.85A5.081 5.081 0 0 0 5.89 4.774 5.08 5.08 0 0 0 .816 9.85c.003 9.344.007 6.943.005 7.764-.012 6.16-.025 12.53 7.197 19.752 3.146 3.146 7.814 4.917 12.683 4.56.84 1.34 2.093 2.836 3.752 4.48 2.389 2.367 5.008 4.409 6.186 5.204 4.898 3.307 11.788 2.458 15.804-1.558.84-.84 1.588-1.7 2.223-2.558a.797.797 0 0 0-1.28-.948 21.392 21.392 0 0 1-2.07 2.38c-3.572 3.572-9.628 4.171-13.786 1.364-1.128-.762-3.645-2.726-5.956-5.016-1.687-1.671-5.726-6.041-4.23-7.9.72-.895 2.175-.758 2.997.065l4.442 4.442a.797.797 0 0 0 1.127-1.127l-7.166-7.166a2.162 2.162 0 0 1 0-3.055 2.162 2.162 0 0 1 3.054 0l6.096 6.097a.797.797 0 0 0 1.127-1.127l-7.31-7.31a2.163 2.163 0 0 1 0-3.054 2.159 2.159 0 0 1 3.054 0l7.405 7.405a.797.797 0 0 0 1.127-1.127l-4.968-4.967c-.816-.817-.935-2.297-.064-2.996.642-.515 2.039-.596 5.05 1.943 1.907 1.607 4.168 4.037 6.72 7.222.47.586 1.418.253 1.418-.498v-3.38a2.5 2.5 0 0 1 2.497-2.498 2.5 2.5 0 0 1 2.498 2.498c-.006 6.72-.005 5.39-.004 5.979.006 2.96.011 5.757-1.255 8.717a.796.796 0 0 0 1.465.627c1.417-3.314 1.387-6.341 1.387-9.94V28.74a4.095 4.095 0 0 0-4.09-4.09ZM35.26 22.112l1.133-1.132c1.174-1.175 3.227-1.332 4.247-.064.814 1.01.583 2.6-.683 4.73-1.324-1.285-3.017-2.756-4.697-3.534Z"/></symbol></svg>