<svg width="27" height="28" viewBox="0 0 27 28" fill="none" xmlns="http://www.w3.org/2000/svg">
<g clip-path="url(#clip0_2066_62)">
<path d="M1.68689 1.90502C-0.434857 4.10889 -0.000607438 6.45002 -0.000607438 13.5623C-0.000607438 19.4685 -1.03111 25.3894 4.36214 26.7833C6.04627 27.2164 20.9683 27.2164 22.6501 26.781C24.8956 26.2016 26.7226 24.3803 26.9724 21.2044C27.0073 20.7611 27.0073 6.37127 26.9713 5.91902C26.7058 2.53614 24.6234 0.586518 21.8795 0.191643C21.2506 0.100518 21.1246 0.0735178 17.8981 0.0678928C6.45352 0.0735178 3.94477 -0.436107 1.68689 1.90502Z" fill="url(#paint0_linear_2066_62)"/>
<path d="M13.4971 3.59922C9.41226 3.59922 5.53326 3.23585 4.05164 7.03835C3.43964 8.60885 3.52851 10.6485 3.52851 13.569C3.52851 16.1317 3.44639 18.5403 4.05164 20.0985C5.52989 23.9032 9.44039 23.5387 13.4949 23.5387C17.4065 23.5387 21.4396 23.946 22.9393 20.0985C23.5524 18.5122 23.4624 16.503 23.4624 13.569C23.4624 9.67422 23.6773 7.15985 21.7884 5.2721C19.8759 3.3596 17.2895 3.59922 13.4926 3.59922H13.4971ZM12.6039 5.39585C21.1246 5.38235 22.2091 4.4351 21.6106 17.5942C21.398 22.2483 17.8543 21.7376 13.4983 21.7376C5.55576 21.7376 5.32739 21.5103 5.32739 13.5645C5.32739 5.52635 5.95739 5.40035 12.6039 5.3936V5.39585ZM18.8184 7.05072C18.158 7.05072 17.6225 7.58622 17.6225 8.2466C17.6225 8.90697 18.158 9.44247 18.8184 9.44247C19.4788 9.44247 20.0143 8.90697 20.0143 8.2466C20.0143 7.58622 19.4788 7.05072 18.8184 7.05072ZM13.4971 8.4491C10.67 8.4491 8.37839 10.7418 8.37839 13.569C8.37839 16.3961 10.67 18.6877 13.4971 18.6877C16.3243 18.6877 18.6148 16.3961 18.6148 13.569C18.6148 10.7418 16.3243 8.4491 13.4971 8.4491ZM13.4971 10.2457C17.8903 10.2457 17.8959 16.8922 13.4971 16.8922C9.10514 16.8922 9.09839 10.2457 13.4971 10.2457Z" fill="white"/>
</g>
<defs>
<linearGradient id="paint0_linear_2066_62" x1="1.73867" y1="25.3434" x2="26.8323" y2="3.62511" gradientUnits="userSpaceOnUse">
<stop stop-color="#FFDD55"/>
<stop offset="0.5" stop-color="#FF543E"/>
<stop offset="1" stop-color="#C837AB"/>
</linearGradient>
<clipPath id="clip0_2066_62">
<rect width="27" height="27" fill="white" transform="translate(-0.000610352 0.0678711)"/>
</clipPath>
</defs>
</svg>
