<svg width="21" height="17" viewBox="0 0 21 17" fill="none" xmlns="http://www.w3.org/2000/svg">
<path fill-rule="evenodd" clip-rule="evenodd" d="M4.90972 0.984864H16.5868C17.1139 0.984846 17.5685 0.984831 17.9429 1.01544C18.3382 1.04775 18.7312 1.11911 19.1094 1.31185C19.6728 1.59891 20.1331 2.05711 20.4213 2.62267C20.614 3.00086 20.6852 3.39392 20.7175 3.78883C20.7481 4.16301 20.7481 4.61717 20.748 5.14326V12.827C20.7481 13.353 20.7481 13.807 20.7175 14.181C20.6852 14.5759 20.6139 14.9687 20.4213 15.3467C20.1334 15.9117 19.6734 16.3707 19.1094 16.6581C18.7314 16.8507 18.3386 16.922 17.9437 16.9543C17.5697 16.9849 17.1157 16.9849 16.5897 16.9849H4.90644C4.38035 16.9849 3.9262 16.9849 3.55201 16.9543C3.15711 16.922 2.76404 16.8508 2.38586 16.6581C1.8208 16.3702 1.36236 15.9107 1.07503 15.3467C0.882257 14.9684 0.810926 14.5753 0.77862 14.18C0.748014 13.8055 0.74803 13.3508 0.748048 12.8236V5.14654C0.74803 4.61937 0.748014 4.16451 0.778616 3.78985C0.810909 3.39448 0.882205 3.00111 1.07503 2.62267C1.36265 2.05819 1.82137 1.59947 2.38586 1.31185C2.76429 1.11902 3.15766 1.04773 3.55303 1.01543C3.9277 0.984831 4.38255 0.984846 4.90972 0.984864ZM4.40907 2.9861L9.45832 6.79911C9.45928 6.79984 9.46023 6.80056 9.46119 6.80129C10.199 7.34211 10.3575 7.4368 10.4972 7.47294C10.6614 7.51542 10.8344 7.51542 10.9986 7.47294C11.1389 7.43667 11.2985 7.34112 12.0406 6.79711L12.2051 6.67099C12.3167 6.58547 12.4786 6.46156 12.6796 6.30787C13.0816 6.0005 13.6406 5.57393 14.2681 5.09705C15.1451 4.43049 16.1591 3.66348 17.0667 2.98596C16.9142 2.98495 16.7429 2.98487 16.5482 2.98487H4.94824C4.74478 2.98487 4.56675 2.98496 4.40907 2.9861ZM18.7395 4.234C17.7336 4.98037 16.5143 5.90202 15.4782 6.6894C14.8526 7.16485 14.2952 7.59023 13.8943 7.89674C13.6939 8.04998 13.5325 8.17348 13.4214 8.25864L13.2501 8.38993L13.232 8.40354C13.192 8.43288 13.1524 8.46203 13.1131 8.49094C12.5541 8.90216 12.0629 9.26347 11.4994 9.40922C11.0067 9.53666 10.4891 9.53666 9.9964 9.40922C9.43322 9.26356 8.94306 8.90296 8.38504 8.49245C8.34583 8.4636 8.30629 8.43451 8.26636 8.40523C8.2584 8.39939 8.25054 8.39344 8.24276 8.38738L2.75629 4.24419C2.74842 4.48566 2.74805 4.78661 2.74805 5.18506V12.7851C2.74805 13.3616 2.74883 13.7338 2.77197 14.0171C2.79416 14.2886 2.83183 14.3893 2.85704 14.4388C2.9532 14.6275 3.10624 14.7805 3.29384 14.8761C3.34305 14.9012 3.44359 14.9388 3.71491 14.961C3.99785 14.9841 4.36951 14.9849 4.94496 14.9849H16.5511C17.1266 14.9849 17.498 14.9841 17.7807 14.961C18.0517 14.9388 18.1521 14.9012 18.2015 14.8761C18.3901 14.7799 18.5437 14.6264 18.6393 14.4388C18.6644 14.3894 18.702 14.289 18.7242 14.018C18.7473 13.7353 18.748 13.3639 18.748 12.7884V5.18178C18.748 4.77927 18.7477 4.47648 18.7395 4.234Z" fill="white"/>
</svg>
