<svg width="38" height="37" viewBox="0 0 38 37" fill="none" xmlns="http://www.w3.org/2000/svg">
<path fill-rule="evenodd" clip-rule="evenodd" d="M31.8342 1.60073H6.83423C4.40418 1.60073 2.43423 3.57068 2.43423 6.00073V31.0007C2.43423 33.4308 4.40418 35.4007 6.83423 35.4007H31.8342C34.2643 35.4007 36.2342 33.4308 36.2342 31.0007V6.00073C36.2342 3.57068 34.2643 1.60073 31.8342 1.60073ZM6.83423 0.000732422C3.52052 0.000732422 0.834229 2.68702 0.834229 6.00073V31.0007C0.834229 34.3144 3.52052 37.0007 6.83423 37.0007H31.8342C35.1479 37.0007 37.8342 34.3144 37.8342 31.0007V6.00073C37.8342 2.68702 35.1479 0.000732422 31.8342 0.000732422H6.83423Z" fill="white"/>
<path d="M28.3816 28.5692C27.4616 28.5692 26.7003 28.3472 26.0975 27.903C25.5027 27.4589 25.2053 26.8799 25.2053 26.1662C25.2053 25.2303 25.705 24.5522 26.7043 24.1319C25.8953 23.7036 25.4908 23.0771 25.4908 22.2523C25.4908 21.6099 25.7644 21.0746 26.3117 20.6463C26.8589 20.218 27.5489 20.0039 28.3816 20.0039C29.2144 20.0039 29.9043 20.218 30.4516 20.6463C30.9988 21.0746 31.2724 21.6178 31.2724 22.2761C31.2724 23.085 30.8679 23.7036 30.059 24.1319C31.0583 24.5919 31.5579 25.266 31.5579 26.1543C31.5579 26.8839 31.2605 27.4708 30.6657 27.9149C30.0709 28.3511 29.3095 28.5692 28.3816 28.5692ZM27.311 23.2992C27.5965 23.5292 27.9534 23.6442 28.3816 23.6442C28.8099 23.6442 29.1628 23.5292 29.4404 23.2992C29.7259 23.0612 29.8687 22.7599 29.8687 22.3951C29.8687 22.0699 29.7299 21.7963 29.4523 21.5742C29.1747 21.3442 28.8178 21.2292 28.3816 21.2292C27.9454 21.2292 27.5885 21.3442 27.311 21.5742C27.0334 21.7963 26.8946 22.0739 26.8946 22.407C26.8946 22.7718 27.0334 23.0692 27.311 23.2992ZM27.1087 26.987C27.426 27.2249 27.8503 27.3439 28.3816 27.3439C28.913 27.3439 29.3373 27.2249 29.6545 26.987C29.9718 26.7412 30.1304 26.4358 30.1304 26.071C30.1304 25.6983 29.9638 25.3969 29.6307 25.1669C29.2976 24.929 28.8813 24.81 28.3816 24.81C27.882 24.81 27.4656 24.929 27.1325 25.1669C26.7994 25.3969 26.6329 25.7062 26.6329 26.0948C26.6329 26.4437 26.7915 26.7412 27.1087 26.987Z" fill="white"/>
<path d="M21.2172 28.5936C20.2417 28.5936 19.3534 28.2605 18.5524 27.5943L19.3495 26.4761C19.9681 26.9995 20.6025 27.2612 21.2529 27.2612C21.8556 27.2612 22.3354 27.0233 22.6923 26.5474C23.0492 26.0637 23.2395 25.4292 23.2633 24.644C22.7716 25.2309 22.1213 25.5244 21.3123 25.5244C20.4241 25.5244 19.7103 25.2825 19.171 24.7987C18.6317 24.3149 18.3621 23.6686 18.3621 22.8596C18.3621 22.0348 18.6515 21.3488 19.2305 20.8016C19.8094 20.2543 20.5549 19.9807 21.467 19.9807C22.4187 19.9807 23.188 20.2742 23.7749 20.861C24.449 21.5352 24.786 22.6019 24.786 24.0611C24.786 25.4173 24.4648 26.5118 23.8224 27.3445C23.188 28.1772 22.3196 28.5936 21.2172 28.5936ZM20.2893 23.8827C20.5986 24.1603 21.011 24.2991 21.5265 24.2991C22.042 24.2991 22.4504 24.1523 22.7518 23.8589C23.0611 23.5655 23.2157 23.2046 23.2157 22.7763C23.2157 22.3322 23.0571 21.9674 22.7399 21.6819C22.4227 21.3884 22.0023 21.2417 21.4789 21.2417C20.9713 21.2417 20.5668 21.3924 20.2655 21.6938C19.972 21.9872 19.8253 22.36 19.8253 22.812C19.8253 23.2482 19.98 23.6051 20.2893 23.8827Z" fill="white"/>
<path d="M14.2428 28.5936C13.2673 28.5936 12.3791 28.2605 11.578 27.5943L12.3751 26.4761C12.9937 26.9995 13.6282 27.2612 14.2785 27.2612C14.8812 27.2612 15.361 27.0233 15.7179 26.5474C16.0748 26.0637 16.2652 25.4292 16.289 24.644C15.7972 25.2309 15.1469 25.5244 14.338 25.5244C13.4497 25.5244 12.7359 25.2825 12.1966 24.7987C11.6573 24.3149 11.3877 23.6686 11.3877 22.8596C11.3877 22.0348 11.6772 21.3488 12.2561 20.8016C12.8351 20.2543 13.5806 19.9807 14.4926 19.9807C15.4443 19.9807 16.2136 20.2742 16.8005 20.861C17.4746 21.5352 17.8117 22.6019 17.8117 24.0611C17.8117 25.4173 17.4905 26.5118 16.8481 27.3445C16.2136 28.1772 15.3452 28.5936 14.2428 28.5936ZM13.3149 23.8827C13.6242 24.1603 14.0366 24.2991 14.5521 24.2991C15.0676 24.2991 15.476 24.1523 15.7774 23.8589C16.0867 23.5655 16.2414 23.2046 16.2414 22.7763C16.2414 22.3322 16.0828 21.9674 15.7655 21.6819C15.4483 21.3884 15.028 21.2417 14.5045 21.2417C13.9969 21.2417 13.5925 21.3924 13.2911 21.6938C12.9977 21.9872 12.8509 22.36 12.8509 22.812C12.8509 23.2482 13.0056 23.6051 13.3149 23.8827Z" fill="white"/>
<path d="M8.91932 28.4506V21.5508L7.42039 21.9671L7.11108 20.7775L9.34758 20.0637H10.3707V28.4506H8.91932Z" fill="white"/>
<path d="M25.9713 13.1212C25.7137 12.9051 25.3295 12.9387 25.1133 13.1964C25.0715 13.2462 25.0267 13.2927 24.9797 13.3345C24.7387 13.5491 24.4308 13.6579 24.0645 13.6579C23.0739 13.6579 22.268 12.852 22.268 11.8613C22.268 10.8707 23.0739 10.0648 24.0645 10.0648C24.4246 10.0648 24.7718 10.1707 25.0685 10.3712C25.3473 10.5595 25.7258 10.4862 25.9141 10.2075C26.1023 9.92874 26.0291 9.55016 25.7503 9.36185C25.2514 9.02484 24.6685 8.84668 24.0644 8.84668C22.4021 8.84668 21.0498 10.199 21.0498 11.8613C21.0498 13.5237 22.4021 14.876 24.0644 14.876C24.7291 14.876 25.3256 14.6575 25.7896 14.2442C25.8804 14.1633 25.9669 14.0742 26.0464 13.9793C26.2626 13.7215 26.2289 13.3374 25.9713 13.1212Z" fill="white"/>
<path d="M19.6288 8.8206C19.2924 8.8206 19.0198 9.09329 19.0198 9.42964V12.3391L16.7715 9.08354C16.6201 8.86421 16.3436 8.76887 16.0892 8.84821C15.8347 8.92755 15.6614 9.16312 15.6614 9.42964V14.2929C15.6614 14.6292 15.9341 14.9019 16.2704 14.9019C16.6068 14.9019 16.8795 14.6292 16.8795 14.2929V11.3834L19.1277 14.639C19.2435 14.8067 19.4325 14.902 19.6289 14.902C19.6892 14.902 19.7502 14.893 19.8101 14.8744C20.0645 14.795 20.2379 14.5595 20.2379 14.2929V9.42972C20.2379 9.09329 19.9653 8.8206 19.6288 8.8206Z" fill="white"/>
<path d="M14.078 8.81616C13.7417 8.81616 13.469 9.08885 13.469 9.4252V14.2975C13.469 14.6339 13.7417 14.9066 14.078 14.9066C14.4144 14.9066 14.6871 14.6339 14.6871 14.2975V9.4252C14.6871 9.08885 14.4144 8.81616 14.078 8.81616Z" fill="white"/>
<path d="M29.424 13.683H27.9856V12.4706H29.2726C29.609 12.4706 29.8816 12.1979 29.8816 11.8615C29.8816 11.5252 29.609 11.2525 29.2726 11.2525H27.9856V10.0401H29.4239C29.7635 10.0401 30.0386 9.76487 30.0386 9.42543C30.0386 9.086 29.7634 8.81079 29.4239 8.81079H27.371C27.0316 8.81079 26.7563 9.086 26.7563 9.42543V14.2978C26.7563 14.6372 27.0316 14.9124 27.371 14.9124H29.424C29.4532 14.9124 29.4817 14.9104 29.5098 14.9065C29.8086 14.8647 30.0387 14.608 30.0387 14.2978C30.0387 13.9582 29.7635 13.683 29.424 13.683Z" fill="white"/>
<path d="M11.0531 11.3283C10.4547 11.1076 9.89758 10.8672 9.72648 10.7923C9.59387 10.6857 9.59834 10.5371 9.60719 10.4752C9.61954 10.3892 9.68198 10.179 9.9947 10.0848C10.6805 9.87825 11.3164 10.3795 11.3356 10.3948C11.5929 10.6083 11.975 10.5743 12.1906 10.3179C12.407 10.0604 12.3737 9.67621 12.1162 9.4598C12.0702 9.42114 10.9747 8.51765 9.64341 8.91848C8.97079 9.12109 8.49492 9.6512 8.40146 10.3021C8.31375 10.9127 8.57848 11.5001 9.09219 11.8351C9.11915 11.8526 9.14741 11.868 9.17672 11.8811C9.2049 11.8937 9.8759 12.1924 10.6315 12.4711C10.8452 12.5498 11.335 12.7722 11.2704 13.1343C11.2217 13.4067 10.8901 13.6883 10.4192 13.6883C9.93502 13.6883 9.46898 13.4931 9.17266 13.1662C8.94675 12.9169 8.56159 12.8979 8.31237 13.1239C8.06316 13.3498 8.04415 13.7348 8.27007 13.9841C8.79343 14.5617 9.59688 14.9065 10.4192 14.9065C11.4461 14.9065 12.3083 14.2512 12.4695 13.3485C12.5908 12.6693 12.2824 11.7818 11.0531 11.3283Z" fill="white"/>
</svg>
