<svg width="56" height="56" viewBox="0 0 56 56" fill="none" xmlns="http://www.w3.org/2000/svg">
<path fill-rule="evenodd" clip-rule="evenodd" d="M27.8047 5.41895C15.3092 5.41895 5.17969 15.5485 5.17969 28.0439C5.17969 40.5394 15.3092 50.6689 27.8047 50.6689C40.3001 50.6689 50.4297 40.5394 50.4297 28.0439C50.4297 15.5485 40.3001 5.41895 27.8047 5.41895ZM0.179688 28.0439C0.179688 12.7871 12.5478 0.418945 27.8047 0.418945C43.0616 0.418945 55.4297 12.7871 55.4297 28.0439C55.4297 43.3008 43.0616 55.6689 27.8047 55.6689C12.5478 55.6689 0.179688 43.3008 0.179688 28.0439ZM37.9475 20.6928C38.9238 21.6692 38.9238 23.2521 37.9475 24.2284L26.7808 35.395C25.8045 36.3714 24.2216 36.3714 23.2453 35.395L17.6619 29.8117C16.6856 28.8354 16.6856 27.2525 17.6619 26.2762C18.6382 25.2999 20.2211 25.2999 21.1975 26.2762L25.013 30.0917L34.4119 20.6928C35.3882 19.7165 36.9711 19.7165 37.9475 20.6928Z" fill="#53A2DB"/>
</svg>
