<svg width="29" height="30" viewBox="0 0 29 30" fill="none" xmlns="http://www.w3.org/2000/svg">
<path d="M27.2639 15.0806C27.2639 21.9804 21.6705 27.5739 14.7706 27.5739C7.87078 27.5739 2.27734 21.9804 2.27734 15.0806C2.27734 8.18072 7.87078 2.58728 14.7706 2.58728C21.6705 2.58728 27.2639 8.18072 27.2639 15.0806Z" fill="white"/>
<path d="M14.3614 29.1763C22.1475 29.1763 28.4571 22.8667 28.4571 15.0806C28.4571 7.29446 22.1475 0.984863 14.3614 0.984863C6.57522 0.984863 0.265625 7.29446 0.265625 15.0806C0.265625 22.8667 6.57522 29.1763 14.3614 29.1763ZM6.71442 14.7758L20.3045 9.53568C20.9352 9.30839 21.4867 9.68898 21.2824 10.644L21.2841 10.6422L18.9707 21.5435C18.7997 22.3152 18.3399 22.5038 17.6968 22.1408L14.1728 19.5437L12.4725 21.1805C12.284 21.369 12.1254 21.5276 11.7625 21.5276L12.0127 17.9403L18.5443 12.0394C18.8279 11.7892 18.4808 11.6483 18.1073 11.8967L10.0357 16.9782L6.55761 15.8929C5.79996 15.655 5.7841 15.1387 6.71442 14.7758Z" fill="#44D8EA"/>
</svg>
