<svg width="32" height="32" viewBox="0 0 32 32" fill="none" xmlns="http://www.w3.org/2000/svg">
<path d="M25.8018 31.3638H6.54564C3.3549 31.3638 0.768799 28.7777 0.768799 25.5869V6.3308C0.768799 3.14005 3.3549 0.553955 6.54564 0.553955H25.8018C28.9925 0.553955 31.5786 3.14005 31.5786 6.3308V25.5869C31.5786 28.7777 28.9925 31.3638 25.8018 31.3638Z" fill="#44D8EA"/>
<path d="M28.1575 15.9589C28.1575 22.5781 22.7916 27.944 16.1724 27.944C9.55327 27.944 4.18738 22.5781 4.18738 15.9589C4.18738 9.33977 9.55327 3.97388 16.1724 3.97388C22.7916 3.97388 28.1575 9.33977 28.1575 15.9589Z" fill="white"/>
<path d="M16.2724 29.7066C24.0586 29.7066 30.3682 23.397 30.3682 15.6109C30.3682 7.82474 24.0586 1.51514 16.2724 1.51514C8.4863 1.51514 2.1767 7.82474 2.1767 15.6109C2.1767 23.397 8.4863 29.7066 16.2724 29.7066ZM8.62549 15.306L22.2155 10.066C22.8463 9.83866 23.3978 10.2192 23.1934 11.1742L23.1952 11.1725L20.8817 22.0738C20.7108 22.8455 20.2509 23.034 19.6078 22.6711L16.0839 20.0739L14.3836 21.7108C14.1951 21.8993 14.0365 22.0579 13.6735 22.0579L13.9237 18.4705L20.4553 12.5697C20.739 12.3195 20.3919 12.1786 20.0184 12.427L11.9468 17.5085L8.46868 16.4231C7.71103 16.1853 7.69517 15.669 8.62549 15.306Z" fill="#44D8EA"/>
</svg>
