<svg width="33" height="39" viewBox="0 0 33 39" fill="none" xmlns="http://www.w3.org/2000/svg">
<path d="M16.2797 5.33667C10.0261 5.33667 4.93848 10.3615 4.93848 16.5378C4.93848 22.7142 10.0261 27.739 16.2797 27.739C22.5333 27.739 27.6209 22.7142 27.6209 16.5378C27.6209 10.3615 22.5333 5.33667 16.2797 5.33667ZM16.2797 25.571C11.2365 25.571 7.13355 21.5188 7.13355 16.5378C7.13355 11.5569 11.2365 7.50464 16.2797 7.50464C21.3228 7.50464 25.4258 11.5569 25.4258 16.5378C25.4258 21.5188 21.3228 25.571 16.2797 25.571Z" fill="white"/>
<path fill-rule="evenodd" clip-rule="evenodd" d="M4.58838 16.5377C4.58838 10.164 9.83677 4.98657 16.2796 4.98657C22.7224 4.98657 27.9708 10.164 27.9708 16.5377C27.9708 22.9115 22.7224 28.0889 16.2796 28.0889C9.83677 28.0889 4.58838 22.9115 4.58838 16.5377ZM16.2796 5.68657C10.2152 5.68657 5.28838 10.5588 5.28838 16.5377C5.28838 22.5167 10.2152 27.3889 16.2796 27.3889C22.344 27.3889 27.2708 22.5167 27.2708 16.5377C27.2708 10.5588 22.344 5.68657 16.2796 5.68657ZM16.2796 7.85454C11.4256 7.85454 7.48345 11.7542 7.48345 16.5377C7.48345 21.3213 11.4256 25.2209 16.2796 25.2209C21.1335 25.2209 25.0757 21.3213 25.0757 16.5377C25.0757 11.7542 21.1335 7.85454 16.2796 7.85454ZM6.78345 16.5377C6.78345 11.3594 11.0472 7.15454 16.2796 7.15454C21.5119 7.15454 25.7757 11.3594 25.7757 16.5377C25.7757 21.716 21.5119 25.9209 16.2796 25.9209C11.0472 25.9209 6.78345 21.716 6.78345 16.5377Z" fill="#22567B"/>
<path d="M17.743 19.5005V11.5513H13.7188V13.7192H15.548V19.5005H13.7188V21.6685H19.5723V19.5005H17.743Z" fill="white"/>
<path fill-rule="evenodd" clip-rule="evenodd" d="M13.3687 11.2012H18.0929V19.1504H19.9222V22.0184H13.3687V19.1504H15.1979V14.0691H13.3687V11.2012ZM14.0687 11.9012V13.3691H15.8979V19.8504H14.0687V21.3184H19.2222V19.8504H17.3929V11.9012H14.0687Z" fill="#22567B"/>
<path d="M27.4034 5.55144C24.4321 2.61688 20.4817 1.00073 16.2797 1.00073C12.0776 1.00073 8.12718 2.61688 5.15593 5.55144C2.18469 8.48601 0.54834 12.3877 0.54834 16.5378C0.54834 20.688 2.18469 24.5897 5.15593 27.5242C6.39417 28.7472 7.80297 29.7402 9.32861 30.4837V38.0007H11.348L16.2797 36.2612L21.2113 38.0007H23.2307V30.4837C24.7564 29.7402 26.1652 28.7472 27.4034 27.5242C30.3746 24.5897 32.011 20.688 32.011 16.5378C32.011 12.3877 30.3746 8.48601 27.4034 5.55144ZM21.0356 35.6366L16.2797 33.9591L11.5237 35.6366V31.3547C13.0422 31.8282 14.6416 32.075 16.2797 32.075C17.9177 32.075 19.5172 31.8282 21.0356 31.3547V35.6366ZM16.2797 29.907C8.8157 29.907 2.74341 23.9096 2.74341 16.5378C2.74341 9.1661 8.8157 3.1687 16.2797 3.1687C23.7436 3.1687 29.8159 9.1661 29.8159 16.5378C29.8159 23.9096 23.7436 29.907 16.2797 29.907Z" fill="white"/>
<path fill-rule="evenodd" clip-rule="evenodd" d="M4.90989 5.30233C7.9471 2.30262 11.9861 0.650635 16.2796 0.650635C20.573 0.650635 24.612 2.30262 27.6492 5.30233C30.6866 8.30218 32.3609 12.2934 32.3609 16.5377C32.3609 20.7821 30.6866 24.7733 27.6492 27.7732C26.4372 28.9702 25.065 29.952 23.5806 30.7007V38.3506H21.1513L16.2796 36.6322L11.4078 38.3506H8.97852V30.7007C7.49424 29.952 6.12192 28.9702 4.90989 27.7732C1.87254 24.7733 0.198242 20.7821 0.198242 16.5377C0.198242 12.2934 1.87254 8.30218 4.90989 5.30233ZM16.2796 1.35063C12.169 1.35063 8.30707 2.93095 5.40178 5.80037C2.49665 8.66963 0.898242 12.4818 0.898242 16.5377C0.898242 20.5936 2.49665 24.4059 5.40178 27.2751C6.61287 28.4713 7.99037 29.4421 9.48184 30.1689L9.67852 30.2648V37.6506H11.288L16.2796 35.8899L21.2711 37.6506H22.8806V30.2648L23.0773 30.1689C24.5688 29.4421 25.9463 28.4713 27.1574 27.2751C30.0625 24.4059 31.6609 20.5936 31.6609 16.5377C31.6609 12.4818 30.0625 8.66963 27.1574 5.80037C24.2521 2.93095 20.3902 1.35063 16.2796 1.35063ZM16.2796 3.5186C9.00479 3.5186 3.09331 9.36339 3.09331 16.5377C3.09331 23.7121 9.00479 29.5569 16.2796 29.5569C23.5543 29.5569 29.4658 23.7121 29.4658 16.5377C29.4658 9.36339 23.5543 3.5186 16.2796 3.5186ZM2.39331 16.5377C2.39331 8.96862 8.62641 2.8186 16.2796 2.8186C23.9327 2.8186 30.1658 8.96862 30.1658 16.5377C30.1658 24.1069 23.9327 30.2569 16.2796 30.2569C8.62641 30.2569 2.39331 24.1069 2.39331 16.5377ZM11.1736 30.8788L11.6278 31.0205C13.1125 31.4835 14.6768 31.7249 16.2796 31.7249C17.8823 31.7249 19.4467 31.4835 20.9313 31.0205L21.3855 30.8788V36.1311L16.2796 34.3301L11.1736 36.1311V30.8788ZM11.8736 31.8231V35.1419L16.2796 33.5878L20.6855 35.1419V31.8231C19.2698 32.2194 17.7905 32.4249 16.2796 32.4249C14.7687 32.4249 13.2893 32.2194 11.8736 31.8231Z" fill="#22567B"/>
</svg>
