<svg width="32" height="32" viewBox="0 0 32 32" fill="none" xmlns="http://www.w3.org/2000/svg">
<path d="M25.9921 31.3632H6.73632C3.54564 31.3632 0.959595 28.7771 0.959595 25.5864V6.33068C0.959595 3.14 3.54564 0.553955 6.73632 0.553955H25.9921C29.1828 0.553955 31.7688 3.14 31.7688 6.33068V25.5864C31.7688 28.7771 29.1828 31.3632 25.9921 31.3632Z" fill="#40BBF1"/>
<path d="M21.4443 16.6179C21.1949 16.3031 21.2672 16.1635 21.4443 15.8823C21.4472 15.8795 23.5037 13.0383 23.7146 12.0745L23.7155 12.0736C23.8214 11.7221 23.7155 11.4641 23.2062 11.4641H21.5213C21.0929 11.4641 20.8946 11.6856 20.7896 11.933C20.7896 11.933 19.9318 13.9857 18.7187 15.3162C18.3268 15.7004 18.1468 15.8246 17.9321 15.8246C17.8262 15.8246 17.6634 15.7013 17.6634 15.3499V12.0736C17.6634 11.6528 17.5431 11.4641 17.1888 11.4641H14.5402C14.2715 11.4641 14.1117 11.6605 14.1117 11.8434C14.1117 12.242 14.7183 12.3345 14.7809 13.458V15.8958C14.7809 16.4292 14.6836 16.5274 14.4689 16.5274C13.897 16.5274 12.5068 14.4661 11.6836 12.1082C11.518 11.6509 11.3543 11.4651 10.923 11.4651H9.23905C8.75862 11.4651 8.66138 11.6865 8.66138 11.934C8.66138 12.372 9.23327 14.5479 11.3235 17.4238C12.7166 19.3869 14.6778 20.4508 16.4619 20.4508C17.5344 20.4508 17.6654 20.2149 17.6654 19.8076C17.6654 17.9321 17.5681 17.755 18.1054 17.755C18.3547 17.755 18.7832 17.8782 19.7845 18.8246C20.9283 19.9482 21.117 20.4508 21.7572 20.4508H23.4421C23.9225 20.4508 24.1661 20.2149 24.0255 19.7489C23.7059 18.7697 21.5416 16.7527 21.4443 16.6179Z" fill="white"/>
</svg>
