<svg width="222" height="49" viewBox="0 0 222 49" fill="none" xmlns="http://www.w3.org/2000/svg">
<g clip-path="url(#clip0_222_4782)">
<path fill-rule="evenodd" clip-rule="evenodd" d="M26.5979 0.786583C21.6295 0.267291 16.621 1.28763 12.2607 3.70735C7.90047 6.12708 4.40255 9.8274 2.24776 14.2997C0.0929692 18.772 -0.61291 23.7968 0.227147 28.6833C1.0672 33.5698 3.41196 38.0782 6.93912 41.5888C10.4663 45.0994 15.0027 47.4399 19.9248 48.2886C24.847 49.1372 29.9132 48.4523 34.4271 46.3281C38.9411 44.2039 42.6812 40.7446 45.1333 36.4257C47.5854 32.1068 48.6292 27.1403 48.1212 22.2089C47.5622 16.7273 45.1167 11.6043 41.1965 7.70244C37.2762 3.80057 32.1207 1.3582 26.5979 0.786583ZM25.8143 37.3464C23.1422 37.7021 20.4249 37.218 18.0443 35.9622C15.6637 34.7065 13.7396 32.7421 12.5423 30.3452C11.3449 27.9483 10.9347 25.2394 11.3691 22.5992C11.8035 19.959 13.0608 17.5202 14.9642 15.6256C16.8677 13.7311 19.3216 12.4759 21.9811 12.0366C24.6406 11.5973 27.3719 11.9959 29.7913 13.1764C32.2107 14.3569 34.1965 16.26 35.4695 18.6181C36.7426 20.9763 37.2389 23.671 36.8888 26.3235C36.5214 29.1135 35.2373 31.7055 33.2352 33.6981C31.2332 35.6908 28.625 36.9731 25.8143 37.3464ZM61.0551 1.73582C60.2164 1.73781 59.3887 1.92531 58.6322 2.28466C57.8757 2.64402 57.2095 3.16619 56.682 3.81319C56.1545 4.46019 55.779 5.21574 55.5829 6.02486C55.3867 6.83397 55.3748 7.67631 55.548 8.49056C56.0787 11.1285 58.5619 12.9309 61.267 12.9309H76.9654L52.5351 45.01C52.3545 45.2469 52.2438 45.5289 52.2156 45.8246C52.1875 46.1204 52.2429 46.418 52.3756 46.6842C52.5084 46.9505 52.7132 47.1747 52.9673 47.3319C53.2213 47.4891 53.5144 47.5729 53.8137 47.5741H92.135C94.8383 47.5741 97.3234 45.7721 97.854 43.1338C98.0273 42.3196 98.0155 41.4774 97.8195 40.6684C97.6235 39.8594 97.2482 39.1039 96.721 38.4568C96.1937 37.8098 95.5278 37.2875 94.7715 36.9279C94.0153 36.5683 93.1878 36.3805 92.3492 36.3781H73.2219L97.6334 4.3239C97.8159 4.08477 97.9276 3.79993 97.956 3.50134C97.9844 3.20274 97.9283 2.9022 97.7942 2.63344C97.66 2.36468 97.453 2.13832 97.1965 1.97977C96.9399 1.82121 96.6439 1.73674 96.3416 1.73582H61.0551ZM214.185 1.86495C212.916 2.16429 211.788 2.88429 210.988 3.90589C210.187 4.9275 209.762 6.18953 209.783 7.48333V26.1228L179.344 2.08787C179.105 1.89986 178.818 1.78253 178.515 1.74938C178.212 1.71623 177.906 1.76861 177.631 1.90048C177.357 2.03236 177.126 2.23838 176.965 2.49484C176.803 2.75131 176.718 3.04779 176.719 3.3502V41.8366C176.698 43.1304 177.123 44.3925 177.923 45.4141C178.724 46.4357 179.851 47.1557 181.12 47.4549C181.944 47.6348 182.798 47.6289 183.619 47.4375C184.441 47.2462 185.208 46.8744 185.865 46.3495C186.522 45.8247 187.052 45.1601 187.416 44.4049C187.78 43.6497 187.968 42.8231 187.967 41.9861V23.1853L218.406 47.2207C218.645 47.4086 218.932 47.5258 219.235 47.559C219.538 47.5921 219.844 47.5397 220.118 47.4079C220.392 47.2761 220.623 47.0701 220.785 46.8138C220.946 46.5574 221.031 46.2611 221.031 45.9588V7.332C221.031 6.49519 220.843 5.66885 220.479 4.9139C220.115 4.15896 219.585 3.49467 218.928 2.97C218.271 2.44533 217.504 2.07367 216.683 1.88241C215.862 1.69116 215.008 1.68519 214.185 1.86495ZM134.929 11.8593C147.804 11.8593 157.424 18.6104 157.424 24.6493C157.424 30.6881 147.804 37.4393 134.929 37.4393C122.054 37.4393 112.434 30.6881 112.434 24.6493C112.434 18.6104 122.054 11.8593 134.929 11.8593ZM134.929 0.664701C116.293 0.664701 101.186 11.4031 101.186 24.6493C101.186 37.8955 116.293 48.6339 134.929 48.6339C153.565 48.6339 168.672 37.8955 168.672 24.6493C168.672 11.4031 153.565 0.664701 134.929 0.664701Z" fill="#0069FF"/>
</g>
<defs>
<clipPath id="clip0_222_4782">
<rect width="221" height="48" fill="white" transform="translate(0.0292969 0.655518)"/>
</clipPath>
</defs>
</svg>
