<svg width="153" height="34" viewBox="0 0 153 34" fill="none" xmlns="http://www.w3.org/2000/svg">
<g clip-path="url(#clip0_222_4590)">
<path fill-rule="evenodd" clip-rule="evenodd" d="M18.6275 0.6309C15.2088 0.278366 11.7625 0.971047 8.76222 2.61373C5.76197 4.25642 3.35509 6.76846 1.87241 9.80459C0.389724 12.8407 -0.0959835 16.2519 0.48205 19.5692C1.06008 22.8865 2.67348 25.9472 5.10048 28.3304C7.52747 30.7137 10.6489 32.3026 14.0358 32.8787C17.4227 33.4548 20.9087 32.9899 24.0147 31.5478C27.1206 30.1057 29.6942 27.7573 31.3814 24.8253C33.0687 21.8933 33.787 18.5217 33.4374 15.1739C33.0528 11.4526 31.37 7.97476 28.6725 5.32588C25.9751 2.67701 22.4276 1.01895 18.6275 0.6309ZM18.0883 25.4503C16.2496 25.6918 14.3799 25.3632 12.7418 24.5107C11.1038 23.6582 9.77979 22.3246 8.95593 20.6974C8.13208 19.0702 7.84977 17.2312 8.14869 15.4389C8.44762 13.6465 9.31274 11.9909 10.6225 10.7047C11.9322 9.41856 13.6207 8.56647 15.4507 8.26824C17.2806 7.97 19.1601 8.24061 20.8248 9.04202C22.4896 9.84344 23.8559 11.1354 24.7319 12.7363C25.6079 14.3371 25.9494 16.1665 25.7085 17.9672C25.4557 19.8612 24.5721 21.6209 23.1945 22.9737C21.817 24.3264 20.0223 25.1969 18.0883 25.4503ZM42.3371 1.27531C41.76 1.27666 41.1904 1.40395 40.6699 1.6479C40.1494 1.89186 39.6909 2.24635 39.328 2.68558C38.965 3.12481 38.7067 3.63773 38.5717 4.18702C38.4367 4.73631 38.4285 5.30814 38.5477 5.86092C38.9128 7.65173 40.6215 8.87534 42.4829 8.87534H53.2847L36.4746 30.653C36.3502 30.8138 36.2741 31.0053 36.2547 31.206C36.2353 31.4068 36.2735 31.6088 36.3648 31.7896C36.4561 31.9703 36.5971 32.1225 36.7719 32.2292C36.9467 32.336 37.1484 32.3929 37.3543 32.3937H63.7228C65.5829 32.3937 67.2928 31.1704 67.6579 29.3792C67.7771 28.8266 67.769 28.2548 67.6342 27.7056C67.4993 27.1564 67.2411 26.6435 66.8783 26.2042C66.5155 25.7649 66.0573 25.4104 65.5369 25.1662C65.0166 24.9221 64.4472 24.7946 63.8701 24.793H50.7089L67.5062 3.03229C67.6317 2.86995 67.7086 2.67658 67.7281 2.47387C67.7476 2.27116 67.7091 2.06714 67.6168 1.88468C67.5245 1.70222 67.382 1.54856 67.2055 1.44092C67.029 1.33328 66.8253 1.27593 66.6173 1.27531H42.3371ZM147.704 1.36297C146.831 1.56619 146.055 2.05497 145.504 2.74851C144.953 3.44205 144.661 4.29882 144.675 5.17714V17.8309L123.73 1.51431C123.566 1.38667 123.368 1.30702 123.16 1.28452C122.951 1.26201 122.741 1.29757 122.552 1.3871C122.363 1.47662 122.204 1.61649 122.093 1.79059C121.982 1.9647 121.923 2.16597 121.924 2.37127V28.4986C121.91 29.3769 122.202 30.2337 122.753 30.9273C123.303 31.6208 124.079 32.1096 124.952 32.3128C125.519 32.4349 126.107 32.4308 126.672 32.301C127.237 32.1711 127.765 31.9187 128.217 31.5623C128.669 31.206 129.034 30.7549 129.284 30.2422C129.535 29.7295 129.664 29.1683 129.663 28.6001V15.8368L150.609 32.1537C150.773 32.2813 150.97 32.3609 151.179 32.3834C151.387 32.4059 151.598 32.3703 151.786 32.2808C151.975 32.1913 152.134 32.0515 152.245 31.8775C152.356 31.7035 152.415 31.5023 152.414 31.2971V5.0744C152.415 4.50631 152.285 3.94534 152.035 3.43283C151.785 2.92032 151.42 2.46934 150.968 2.11316C150.516 1.75698 149.988 1.50467 149.423 1.37483C148.858 1.24499 148.27 1.24094 147.704 1.36297ZM93.1689 8.14788C102.028 8.14788 108.647 12.731 108.647 16.8306C108.647 20.9303 102.028 25.5134 93.1689 25.5134C84.3098 25.5134 77.6903 20.9303 77.6903 16.8306C77.6903 12.731 84.3098 8.14788 93.1689 8.14788ZM93.1689 0.548157C80.3457 0.548157 69.9507 7.83813 69.9507 16.8306C69.9507 25.8232 80.3457 33.1131 93.1689 33.1131C105.992 33.1131 116.387 25.8232 116.387 16.8306C116.387 7.83813 105.992 0.548157 93.1689 0.548157Z" fill="white"/>
</g>
<defs>
<clipPath id="clip0_222_4590">
<rect width="152.067" height="32.5859" fill="white" transform="translate(0.345703 0.541992)"/>
</clipPath>
</defs>
</svg>
